<svg width="92" height="102" viewBox="0 0 92 102" fill="none" xmlns="http://www.w3.org/2000/svg">
<path d="M47.3818 0.367403C46.8809 0.552919 46.2316 0.719881 45.9534 0.719881C45.5452 0.738428 45.4339 0.84974 45.3412 1.33207C45.0815 2.63065 45.1186 2.59354 44.4322 2.31528C43.8942 2.09267 43.7643 2.09267 43.4304 2.33383C42.8924 2.70486 42.8739 3.61386 43.4118 3.91068C43.6345 4.02199 44.0426 4.07764 44.3209 4.00344C44.8403 3.91068 44.8403 3.91068 44.6548 4.59708C44.4136 5.46898 44.4322 5.46898 43.8571 5.0794C42.911 4.44866 41.9278 5.45042 42.5585 6.43364C42.8182 6.82321 42.9666 6.87887 43.4861 6.80466L44.0982 6.7119L43.9127 7.37975C43.8014 7.75077 43.7087 8.0847 43.6716 8.1218C43.6345 8.1589 43.3562 8.0476 43.0408 7.88063C42.0205 7.3612 41.1857 8.25166 41.8164 9.21632C42.0762 9.60589 42.2246 9.66155 42.7811 9.58734C43.3376 9.49459 43.4118 9.51313 43.3005 9.7914C43.2263 9.95836 43.0779 10.3479 42.9852 10.6262C42.8553 10.9601 42.7255 11.09 42.577 10.9787C41.8721 10.4221 40.7961 10.7932 40.7961 11.5909C40.7961 12.2402 41.3156 12.6668 41.9463 12.537C42.2246 12.4813 42.4657 12.4628 42.4657 12.4999C42.4657 12.537 42.3359 12.9266 42.1875 13.3532C41.7793 14.5034 41.8164 14.6333 42.7811 15.0414L43.6345 15.4124L43.5046 22.4062C43.4489 26.2463 43.3376 31.1624 43.282 33.3143L43.1521 37.2286L41.9278 37.4512C38.032 38.1562 35.4163 39.9371 34.0621 42.8125C33.5241 43.9256 33.4684 44.2224 33.487 45.725C33.487 47.0607 33.5983 47.6544 33.9878 48.6932C34.2476 49.3982 34.4516 50.0104 34.4145 50.0289C34.3774 50.066 30.2591 44.6305 28.8863 42.7383C28.7193 42.5157 29.9066 41.0687 37.7166 31.9044C40.017 29.1959 41.9092 26.877 41.9092 26.7472C41.9092 26.5802 40.6848 26.5246 36.3809 26.5246H30.8527L28.1628 29.7154C19.7777 39.733 19.7405 39.7701 19.6849 39.2878C19.6478 39.0281 20.2043 37.1915 20.9093 35.2251C23.525 27.9345 23.2096 28.5466 25.881 25.3744C31.3536 18.8629 34.7484 14.9857 35.1195 14.8373C35.5647 14.6704 36.381 13.8356 36.6963 13.2234C37.4013 11.832 36.1583 10.8117 34.6928 11.5723C34.1919 11.832 33.1901 13.1492 33.1901 13.5387C33.1901 13.65 32.3368 14.7075 31.2979 15.8947C30.2591 17.082 28.979 18.5661 28.441 19.2154C27.3465 20.5696 25.5842 22.5175 25.5842 22.3877C25.5842 22.3505 25.714 21.9424 25.881 21.4972C26.0479 21.052 26.79 18.9 27.5506 16.711C28.4225 14.188 29.0718 12.6297 29.2944 12.4813C29.4799 12.3515 29.7767 11.8691 29.9622 11.4054C30.593 9.7172 29.6654 8.40007 28.2555 8.9937C27.4764 9.30907 26.8456 10.552 26.9199 11.628C26.957 12.2773 26.0479 14.9486 22.3192 25.3187C21.9481 26.3576 21.5957 26.877 20.6496 27.8788L19.4623 29.1217V27.8231V26.5246H14.8245H10.1867L10.1496 38.2304L10.0939 49.9361L8.10896 47.5987C6.99589 46.3187 6.10544 45.2056 6.10544 45.1128C6.10544 45.0386 5.86427 44.5749 5.5489 44.0925C4.60279 42.5899 3.06304 42.2189 2.58071 43.4061C2.3952 43.8699 2.41375 44.0554 2.76622 44.7975C3.13725 45.5766 3.97205 46.3743 4.41728 46.3743C4.52859 46.3743 4.93671 46.7824 5.32629 47.2648C6.04978 48.1923 7.01444 49.3425 9.01797 51.68L10.1867 53.0156L10.2238 56.967L10.2794 60.937L10.7432 60.9926C11.0029 61.0112 11.4853 61.0854 11.8192 61.1411L12.4128 61.2338L12.0975 61.8275C11.3925 63.2188 10.465 64.3875 9.88988 64.6658C8.51709 65.3151 8.16462 66.9476 8.94377 69.2108C9.55595 70.9732 10.4464 72.3831 12.1717 74.2011C14.6946 76.8539 17.5701 78.6163 20.1672 79.0615C21.3731 79.2656 21.5029 79.247 22.3563 78.8203C22.9685 78.5235 23.3766 78.1525 23.6363 77.6887C23.8404 77.3177 25.1389 75.9263 26.5117 74.6092C28.5895 72.6242 29.146 72.1976 29.7582 72.0863C30.1478 72.012 30.7228 71.7709 31.0011 71.5854L31.502 71.2143L31.9101 72.012C34.4516 77.0209 41.0929 80.2117 47.6972 79.5809C50.183 79.3398 51.6857 78.9131 53.8933 77.8186C55.6927 76.9096 55.7855 76.891 56.5275 77.0951C58.5311 77.6887 62.6309 77.8742 65.4692 77.5403C70.3853 76.9281 75.0602 75.1286 78.8631 72.4016C80.8667 70.9546 84.0575 67.7638 85.4859 65.7417C88.5839 61.3822 90.1423 56.5589 90.1423 51.3831C90.1423 48.0439 90.402 48.248 85.9682 48.1923L82.4435 48.1367L82.3879 37.3213L82.3508 26.5246H78.1953H74.0398L73.1308 27.953C72.6299 28.7507 71.3499 30.7913 70.2925 32.5166C67.4913 36.9689 67.8623 36.7092 67.0831 34.7056L66.4153 33.0175L66.8976 32.1827L67.3614 31.3479L66.9718 30.1977C66.6194 29.1774 66.6194 29.029 66.8605 28.7507C67.2501 28.324 67.213 28.1014 66.471 26.2277C65.8773 24.7808 65.8217 24.5025 66.0072 24.0016C66.5637 22.4804 65.8031 21.052 64.115 20.4212C63.6883 20.2543 63.6697 20.143 63.5584 18.1394C63.4657 15.8947 63.3544 15.3939 62.9462 15.3939C62.7978 15.3939 62.6865 15.3197 62.6865 15.2269C62.6865 15.1341 62.3526 14.7075 61.9259 14.2808C60.0523 12.3515 57.047 12.2031 55.1362 13.9654C53.6335 15.3382 53.1883 16.8409 53.6706 18.8815C53.9489 20.0873 54.3385 20.6995 55.8597 22.3877C56.342 22.9256 56.8614 23.5749 57.047 23.8346C57.3252 24.2799 57.3252 24.3355 57.047 24.6509C56.6203 25.1332 56.6759 25.968 57.2139 26.7472C57.5849 27.3037 57.8076 27.4336 58.3641 27.4892L59.069 27.5449L60.4604 30.3832C61.8517 33.2215 62.2598 33.741 63.1132 33.7595C63.2802 33.7595 63.5213 33.945 63.6141 34.1677C63.7068 34.4088 64.2448 35.7074 64.8013 37.0616L65.8402 39.5475L65.0796 40.6606L64.319 41.7551L61.2952 37.2471C59.6256 34.7613 57.3623 31.3479 56.2678 29.6226C55.1362 27.8788 54.1344 26.5246 53.9675 26.5246C53.8191 26.506 52.5019 26.506 51.0549 26.5246C49.6079 26.5246 48.4021 26.4689 48.3465 26.3947C48.2908 26.3205 48.2166 23.7048 48.198 20.5882C48.1424 15.4124 48.1609 14.8559 48.4763 14.1324C48.8473 13.2605 49.7192 12.4257 50.2572 12.4257C50.4427 12.4257 50.6654 12.3515 50.721 12.2402C50.7767 12.1474 50.5355 10.8674 50.183 9.42038C49.8306 7.95484 49.4966 6.39654 49.4224 5.93276C49.3111 5.11651 49.3297 5.09795 50.0346 4.68983C50.5355 4.41156 50.9065 4.00343 51.1848 3.4098C51.5558 2.6492 51.5744 2.48224 51.3703 1.79585C51.259 1.38772 50.9065 0.812631 50.5912 0.515817C49.9233 -0.114927 48.8288 -0.170576 47.3818 0.367403ZM49.9048 0.738435C50.0903 0.84974 50.3871 1.18366 50.5355 1.48048C51.1291 2.63065 50.7581 3.59531 49.4039 4.37446C48.9587 4.63418 48.5876 4.91244 48.5876 5.00519C48.5876 5.52463 49.5708 10.0697 49.9975 11.5167C50.0532 11.7207 49.9048 11.8877 49.5152 12.0546C48.9215 12.2958 47.8641 13.4645 47.6786 14.0582C47.4746 14.6704 47.9198 57.0598 48.1238 57.2824C48.198 57.3752 49.6821 56.5589 49.812 56.3734C49.8677 56.2806 50.0161 56.2621 50.1274 56.3177C50.2572 56.392 50.2943 56.392 50.2201 56.2992C50.0161 56.0951 50.4427 55.6314 50.7025 55.7798C50.8138 55.8354 50.8509 55.8354 50.7767 55.7427C50.7025 55.6685 50.8694 55.1676 51.1477 54.6481C51.5744 53.8319 51.6486 53.4794 51.6486 52.1252C51.6486 50.8637 51.5558 50.3999 51.2404 49.8063C50.7952 48.9715 49.8862 47.9883 49.1442 47.543L48.6433 47.2462L48.532 44.1853C48.4578 42.4971 48.4021 40.4008 48.4021 39.5104V37.8964L49.4781 38.0634C53.0399 38.6014 55.6 40.2153 56.8615 42.7012C57.8818 44.7047 57.789 46.5784 56.5275 49.4909C55.7855 51.1976 55.7484 51.3831 55.7484 53.1455C55.7298 54.8708 55.7669 55.0748 56.3235 56.1322C56.6388 56.763 57.4922 58.1358 58.1971 59.1932C60.0708 62.013 60.6644 63.7382 60.683 66.5023C60.683 67.3186 60.5531 68.5244 60.3676 69.1737C60.0151 70.528 59.1432 72.3645 58.6053 72.9025C58.4012 73.1066 58.2899 73.2735 58.3641 73.2735C58.4197 73.2735 58.327 73.4405 58.1415 73.6445C57.956 73.8486 57.7334 74.0156 57.622 74.0156C57.5293 74.0156 57.6406 73.8486 57.8818 73.6445C58.1415 73.4405 58.2157 73.2921 58.0858 73.2735C57.956 73.2735 57.9003 73.1808 57.9745 73.0695C58.0487 72.9396 57.9931 72.884 57.8447 72.9396C57.6963 72.9953 57.6035 73.1437 57.6406 73.255C57.6591 73.3848 57.6035 73.4405 57.5107 73.3848C57.418 73.3292 57.251 73.3848 57.1397 73.5332C57.0099 73.6817 56.9913 73.8301 57.0655 73.8672C57.1397 73.9228 57.1212 73.9228 56.9913 73.9043C56.88 73.8672 56.6759 73.9785 56.5461 74.1269C56.342 74.368 56.3606 74.4051 56.5832 74.3495C56.8615 74.2938 56.9357 74.3866 56.9357 74.7762C56.9357 74.8875 56.8058 74.8318 56.6388 74.6649C56.3606 74.3866 56.2864 74.4051 55.8411 74.7947C55.5814 75.0173 55.7484 74.7947 56.2122 74.2938C56.6945 73.7744 57.2139 73.1808 57.3994 72.9767C57.6035 72.7355 57.8632 72.6057 58.0673 72.6613C58.2713 72.717 58.4197 72.6613 58.4197 72.55C58.4197 72.4573 58.2899 72.4016 58.1415 72.4573C57.7519 72.6057 57.789 72.4944 58.4197 71.2329C59.9224 68.2647 59.9224 65.0368 58.4197 61.7903C57.8632 60.6216 56.5832 58.7109 56.4533 58.8593C56.3977 58.8964 56.4904 59.4715 56.6574 60.1207C57.0284 61.6976 57.0099 65.3893 56.6388 66.9661C56.2307 68.7285 54.9136 71.3257 53.6521 72.8097C53.0585 73.5147 52.5019 74.0898 52.4092 74.0527C52.335 74.0156 52.1309 74.164 51.9639 74.368C51.3146 75.1101 49.274 76.3716 47.9198 76.8539C46.5284 77.3548 46.4542 77.3733 47.1035 77.0023C47.456 76.7982 47.623 76.6313 47.4746 76.6127C47.2519 76.6127 47.2705 76.5571 47.5302 76.4087C47.6972 76.2974 47.8085 76.1675 47.7714 76.0933C47.7157 76.0191 47.8456 75.9449 48.0496 75.9449C48.4021 75.9449 48.3836 75.9634 47.994 76.2788C47.5673 76.5942 47.5673 76.6127 47.9569 76.6127C48.1795 76.6127 48.4207 76.4829 48.4763 76.3159C48.5505 76.149 48.7175 76.0562 48.8844 76.1304C49.0329 76.1861 49.1071 76.1675 49.0514 76.0748C48.9957 75.982 49.0514 75.8336 49.1627 75.7594C49.3111 75.6852 49.2926 75.5924 49.1256 75.4626C48.9401 75.3327 49.07 75.3142 49.5152 75.3884C49.9233 75.4626 50.0717 75.444 49.9048 75.3327C49.5708 75.1101 49.9048 74.9246 50.6839 74.906C50.9993 74.8875 51.1662 74.8504 51.0364 74.8133C50.9251 74.7576 50.8509 74.6463 50.9065 74.5721C50.9622 74.4794 51.1291 74.4422 51.2775 74.5165C51.4445 74.5721 51.5558 74.4979 51.5558 74.3124C51.5558 73.9414 51.2961 73.9228 50.9993 74.2938C50.8694 74.4422 50.6839 74.5165 50.5726 74.4422C50.4613 74.3866 50.4427 74.4237 50.5169 74.535C50.6097 74.6834 50.4798 74.7576 50.1274 74.7576C49.8306 74.7576 49.4966 74.8504 49.3668 74.9802C49.1998 75.1472 49.1442 75.1472 49.1442 74.9802C49.1442 74.8504 49.0143 74.7576 48.8659 74.7576C48.7175 74.7576 48.5876 74.6649 48.5876 74.5721C48.5876 74.3309 49.0885 74.3309 49.1813 74.5907C49.2184 74.7205 49.3853 74.7205 49.7007 74.5907C50.0903 74.4422 49.9419 74.2938 49.4781 74.368C49.3853 74.368 49.3297 73.3848 49.3297 72.1605C49.3297 70.3795 49.274 69.9343 49.07 69.9343C48.736 69.9343 48.5691 68.4873 48.8844 68.376C49.0143 68.3204 49.1627 67.6896 49.2369 66.8919C49.3482 65.8345 49.441 65.482 49.6821 65.4264C49.8491 65.3707 49.6265 65.3336 49.1813 65.3151C48.736 65.3151 48.4207 65.2223 48.4763 65.1296C48.532 65.0368 49.07 64.9997 49.6636 65.0554C51.2404 65.2038 51.5558 64.9812 51.5558 63.7197C51.5558 62.2912 51.3146 62.1243 49.5523 62.217L48.1238 62.3098L48.0311 62.922C47.827 64.2391 47.6601 62.9776 47.6044 59.9167C47.5673 57.2268 47.5302 56.763 47.289 56.8001C46.8809 56.8928 46.8253 57.505 47.2334 57.5236C47.4189 57.5236 47.4746 57.5792 47.3447 57.6349C47.1592 57.6905 47.1035 58.414 47.1035 60.3434C47.1035 61.7903 47.0293 63.0889 46.9366 63.2188C46.6954 63.5898 46.547 62.0501 46.547 59.3416C46.547 57.3381 46.5099 56.9485 46.2687 56.9485C45.9348 56.9485 45.8977 57.6905 46.2316 57.7091C46.4171 57.7091 46.4171 57.7462 46.2316 57.8204C46.0461 57.876 45.9905 58.6181 45.9905 60.566C45.9905 63.2188 45.7678 64.2206 45.5452 62.5509C45.4896 62.0686 45.4525 60.6216 45.471 59.3045C45.5267 57.1711 45.4896 56.9485 45.2113 56.9485C44.9145 56.9485 44.8774 57.2268 44.8774 60.1949C44.8774 62.2356 44.8032 63.4414 44.6919 63.4414C44.4878 63.4414 44.4878 63.4785 44.4878 59.5086C44.4878 57.3937 44.4322 56.7815 44.2467 56.7073C44.0982 56.6517 43.9313 56.6517 43.8756 56.7073C43.6716 56.9114 43.7643 57.505 43.9869 57.505C44.1539 57.505 44.1539 57.5607 43.9869 57.7276C43.8385 57.8761 43.7643 58.8036 43.7643 60.6958C43.7643 62.4025 43.6901 63.4414 43.5788 63.4414C43.4675 63.4414 43.3933 62.1614 43.3933 59.9538L43.3747 56.4847L42.6327 55.9653C41.6866 55.316 40.8518 53.9803 40.6848 52.8858C40.4251 51.142 41.2228 49.0828 42.4657 48.3593C43.0223 48.0254 43.0223 48.0254 43.0223 48.4706C43.0223 48.7118 42.8368 49.0642 42.6327 49.2683C41.5753 50.1959 41.2228 52.4406 41.8907 53.7577C42.0947 54.1287 42.5028 54.6852 42.7997 54.9635L43.3562 55.5015L43.4675 53.9432C43.5232 53.1084 43.653 47.9326 43.7643 42.4786C43.8756 37.0245 44.0426 28.8435 44.1353 24.2984C44.2281 19.7534 44.3023 15.5052 44.3209 14.8373C44.3394 14.1695 44.4322 13.5387 44.5435 13.446C44.6733 13.3161 44.6919 14.3364 44.6177 16.878C44.562 18.8629 44.4136 25.5414 44.3209 31.7189C44.2095 37.8964 44.0426 45.8178 43.9498 49.324C43.8571 52.8487 43.82 55.7798 43.8756 55.8725C43.9313 55.9467 44.0982 56.0209 44.2467 56.0209C44.4507 56.0209 44.5064 55.687 44.5064 54.3884C44.5064 53.498 44.5806 48.6005 44.6919 43.4989C44.8588 34.5201 45.1371 13.3718 45.1 12.4257C45.1 12.1659 45.0444 11.6836 45.0072 11.3497C44.933 10.923 44.9887 10.7561 45.1742 10.7561C45.4154 10.7561 45.4339 11.7578 45.3412 17.8426C45.2855 21.7569 45.1557 31.9601 45.0629 40.5122C44.8774 56.3178 44.8774 56.3734 45.4896 56.392C45.6194 56.392 45.7307 35.9671 45.6751 20.0873C45.638 12.8523 45.6936 10.5891 45.8606 10.5149C46.0276 10.4592 46.0647 15.5794 46.0276 33.407C45.9719 54.8708 45.9905 56.392 46.2873 56.392C46.5841 56.392 46.5841 54.8522 46.5099 33.0546C46.4357 18.9371 46.3429 9.55024 46.2316 9.27197C46.0276 8.73399 46.176 7.93628 46.4913 7.84353C46.6212 7.78788 46.714 7.91773 46.714 8.10325C46.6398 11.1827 46.9922 55.9653 47.085 56.058C47.1406 56.1322 47.289 56.1322 47.4189 56.058C47.6415 55.9282 47.5302 42.4044 47.1221 16.2101L46.9551 5.61739L46.3615 5.0423C46.0461 4.70838 45.6936 4.44866 45.6009 4.44866C45.5081 4.44866 45.4339 4.3559 45.4339 4.2446C45.4339 4.15184 45.5081 4.09619 45.5823 4.15185C45.6751 4.2075 45.7307 3.92924 45.7307 3.55821C45.7307 3.18719 45.7864 2.51934 45.8606 2.07411C45.9719 1.42482 46.0647 1.29497 46.4171 1.29497C46.6398 1.29497 47.2519 1.12801 47.7528 0.923944C48.8102 0.515817 49.3853 0.478716 49.9048 0.738435ZM45.3783 5.22782C45.3226 5.35767 45.2855 5.26491 45.2855 5.00519C45.2855 4.74548 45.3226 4.65272 45.3783 4.76403C45.4154 4.89389 45.4154 5.11651 45.3783 5.22782ZM45.1928 6.32233C44.9145 6.76756 44.8217 6.65626 44.9887 6.02552C45.0629 5.6916 45.1557 5.59884 45.2484 5.7658C45.3412 5.89566 45.3041 6.13682 45.1928 6.32233ZM45.1557 7.3983L45.5267 7.84353L45.1186 7.58381C44.8774 7.4354 44.6919 7.2128 44.6919 7.06438C44.6919 6.91597 44.7104 6.84176 44.7475 6.87887C44.7661 6.91597 44.9516 7.15713 45.1557 7.3983ZM44.8774 8.77109C44.8774 8.80819 44.7104 8.9937 44.5064 9.17922C44.1539 9.49459 44.1353 9.49459 44.1353 9.19776C44.1353 9.0308 44.2095 8.9195 44.3023 8.9937C44.3951 9.04936 44.5249 9.01226 44.5991 8.90095C44.7104 8.71543 44.8774 8.64123 44.8774 8.77109ZM29.2944 9.64299C29.7396 10.0882 29.7582 10.3665 29.4057 11.2013C28.7379 12.8152 27.1796 12.5555 27.6433 10.9045C27.8289 10.1995 28.4596 9.27197 28.7564 9.27197C28.8492 9.27197 29.0903 9.43893 29.2944 9.64299ZM36.3067 12.2958C36.3995 12.7967 35.4905 14.0767 34.9525 14.2066C33.7652 14.5034 33.5426 13.5202 34.5815 12.4813C35.2864 11.7764 36.1954 11.6651 36.3067 12.2958ZM27.9587 12.7596C28.2184 12.9266 27.8103 14.2066 24.7123 22.8143C23.7476 25.5228 22.6716 28.5652 22.3006 29.5855C21.9481 30.6058 21.2432 32.4795 20.7423 33.7595C19.889 35.9857 19.8333 36.0413 19.8333 35.2251C19.8333 34.3532 20.3342 32.7949 23.0427 25.1332C26.2335 16.1545 27.5135 12.6112 27.6062 12.6112C27.6805 12.6112 27.8289 12.6854 27.9587 12.7596ZM58.8279 13.6315C58.8279 13.7243 58.7166 13.8912 58.5496 13.984C58.2342 14.188 57.6035 13.7985 57.789 13.5016C57.9189 13.279 58.7908 13.3903 58.8279 13.6315ZM57.0099 14.0025C56.6945 14.4848 56.4533 14.5591 56.0452 14.3179C55.7855 14.1509 56.3049 13.8356 57.2696 13.5573C57.2881 13.5387 57.1768 13.7428 57.0099 14.0025ZM59.9038 13.7243C60.1265 13.8541 60.1265 13.9469 59.9038 14.3735C59.6256 14.9115 59.2174 14.9115 58.9021 14.4106C58.7351 14.1324 58.7722 14.0211 59.0505 13.7985C59.4772 13.5016 59.5328 13.4831 59.9038 13.7243ZM57.956 14.1695C58.3084 14.4292 58.3084 14.4477 57.9745 14.8188C57.7148 15.1156 57.5478 15.1527 57.2881 15.0043C56.88 14.8002 56.8429 14.4478 57.1583 14.1324C57.4365 13.8541 57.5293 13.8541 57.956 14.1695ZM61.0169 14.3735C61.221 14.6147 61.221 14.7446 61.0169 15.1156C60.7386 15.635 60.516 15.6721 60.0523 15.3382C59.8482 15.1712 59.7925 15.0043 59.9038 14.8373C60.0337 14.6147 60.1265 14.6147 60.312 14.8002C60.4233 14.9115 60.6273 15.0228 60.7386 15.0228C60.8314 15.0228 60.7757 14.9301 60.6088 14.8188C60.2192 14.5962 60.1636 14.0953 60.5346 14.0953C60.6644 14.0953 60.8871 14.2251 61.0169 14.3735ZM33.8394 14.6518C33.9693 14.8559 33.3386 15.6536 30.3333 19.0484C29.3315 20.1986 28.441 21.0891 28.3483 21.0334C28.2555 20.9778 28.237 21.052 28.2926 21.2004C28.3483 21.3488 28.237 21.5714 28.0515 21.7198C27.7547 21.9424 27.7361 21.9424 27.9402 21.6827C28.2926 21.256 27.9958 21.0891 27.5691 21.4601C27.3651 21.6456 27.9216 20.9036 28.8121 19.809C29.7211 18.7145 30.5373 17.8612 30.6486 17.9354C30.7414 17.991 30.7785 17.9539 30.7228 17.8612C30.593 17.6571 33.2644 14.4663 33.5612 14.4663C33.6539 14.4663 33.7838 14.5591 33.8394 14.6518ZM56.1751 14.6333C56.3606 14.7631 56.3791 14.8744 56.2122 15.1898C55.971 15.635 55.804 15.6721 55.5072 15.3753C55.3403 15.2083 55.3403 15.0785 55.5072 14.8188C55.7484 14.4292 55.804 14.4106 56.1751 14.6333ZM59.3473 15.2083C59.3473 15.2825 59.1989 15.4681 59.0134 15.635C58.7166 15.9133 58.6424 15.9133 58.2713 15.6536C57.9003 15.3939 57.8818 15.3568 58.16 14.9301C58.4383 14.5034 58.4754 14.5034 58.9021 14.7817C59.1432 14.9301 59.3473 15.1341 59.3473 15.2083ZM57.2881 15.2826C57.4551 15.4866 57.4551 15.635 57.2696 15.9318C56.9913 16.3956 56.9542 16.3956 56.509 16.0617C56.2307 15.8391 56.2122 15.7278 56.3791 15.4124C56.6203 14.9672 56.9913 14.9115 57.2881 15.2826ZM61.7775 15.1527C61.7775 15.2454 61.8146 15.5794 61.8517 15.9133C61.9074 16.5069 61.8332 16.5997 60.7757 17.2675C59.4957 18.1023 59.1989 18.1765 59.6627 17.5458C59.8482 17.3046 60.1265 17.1562 60.2749 17.1933C60.516 17.2675 60.516 17.2675 60.2749 17.082C60.0337 16.9151 60.0522 16.8408 60.3862 16.4884C60.7201 16.173 60.85 16.1359 61.1653 16.3029C61.4436 16.4513 61.592 16.4513 61.6848 16.2843C61.759 16.173 61.7404 16.1174 61.6477 16.1916C61.5549 16.2472 61.3137 16.173 61.1282 16.0246C60.7757 15.7834 60.7757 15.7649 61.1097 15.3939C61.4436 15.0228 61.7404 14.9115 61.7775 15.1527ZM55.4701 15.7092C55.6927 15.9318 55.3959 16.6924 55.0991 16.6924C54.7837 16.6924 54.4869 16.173 54.7095 16.0431C54.8208 15.9689 54.8765 15.802 54.8208 15.6721C54.7281 15.3939 55.1733 15.4124 55.4701 15.7092ZM60.1636 15.635C60.4975 15.8762 60.4975 15.9133 60.1821 16.3956C59.8667 16.878 59.8482 16.878 59.4586 16.5626C59.2545 16.3771 59.0505 16.2101 59.0134 16.2101C58.8835 16.1359 59.4586 15.3939 59.6256 15.3939C59.7369 15.3939 59.978 15.5052 60.1636 15.635ZM58.3826 16.6182C58.1415 17.1377 58.0858 17.1377 57.6035 16.7852C57.2881 16.544 57.2696 16.4513 57.4922 16.0617C57.7148 15.635 57.7519 15.6165 58.16 15.8762C58.5311 16.1174 58.5496 16.2287 58.3826 16.6182ZM56.5461 16.3956C56.8243 16.7295 56.4719 17.5087 56.138 17.3232C55.5443 16.9707 55.4516 16.8408 55.6556 16.4884C55.8782 16.0617 56.2493 16.0246 56.5461 16.3956ZM59.6441 16.8965C59.6998 17.0078 59.5885 17.2861 59.3659 17.4901C58.9948 17.8612 58.9577 17.8612 58.6609 17.5829C58.4012 17.3232 58.3826 17.1748 58.5682 16.7852C58.7537 16.3771 58.8464 16.34 59.1432 16.5069C59.3473 16.5997 59.5699 16.7852 59.6441 16.8965ZM54.9321 17.1748C54.895 17.3603 54.7652 17.6386 54.6539 17.7684C54.3385 18.158 54.0788 17.5458 54.3756 17.0635C54.6539 16.6182 55.0063 16.6924 54.9321 17.1748ZM62.5938 17.5458C62.4268 17.8055 61.8703 18.2878 61.3323 18.6218C58.7166 20.2914 55.1176 20.9592 54.5426 19.8832C54.3941 19.605 54.4683 19.5679 55.3403 19.6235C57.2139 19.7534 60.6459 18.5661 62.13 17.2861C62.8349 16.6739 63.0761 16.8037 62.5938 17.5458ZM57.6591 17.1377C57.9374 17.4716 57.5849 18.2507 57.251 18.0652C56.6574 17.7128 56.5646 17.5829 56.7687 17.2304C56.9913 16.8037 57.3623 16.7666 57.6591 17.1377ZM56.1009 17.62C56.1936 17.7684 55.9524 18.4177 55.7298 18.696C55.6927 18.7331 55.4516 18.6218 55.1918 18.4548C54.7281 18.1394 54.7281 18.1209 55.0249 17.62C55.266 17.1933 55.3959 17.1191 55.6556 17.2675C55.8411 17.3603 56.0452 17.5087 56.1009 17.62ZM58.3826 18.3249C57.6963 18.6218 57.6035 18.5476 57.8818 17.9354C58.0858 17.4716 58.1044 17.4716 58.5311 17.7684L58.9577 18.0838L58.3826 18.3249ZM57.1954 18.7516C56.8058 18.9186 56.0081 18.9557 56.0081 18.8258C56.0081 18.7887 56.1009 18.5476 56.2122 18.2878L56.4348 17.8241L56.9913 18.2136C57.5107 18.5847 57.5293 18.6218 57.1954 18.7516ZM63.0204 19.5308C62.9277 20.9963 62.4639 21.6642 61.0169 22.3877C60.1821 22.8143 59.7554 22.9071 58.6609 22.9071H57.3252L56.3791 21.9795L55.433 21.052L56.8615 20.9221C58.494 20.7737 60.7757 19.7719 62.0372 18.6774C62.4454 18.3064 62.8535 18.0838 62.9462 18.1765C63.039 18.2693 63.0761 18.8629 63.0204 19.5308ZM55.2475 18.8629C55.2846 18.9 55.1547 18.9186 54.9507 18.9186C54.7466 18.9186 54.5797 18.7887 54.5797 18.6403C54.5797 18.4177 54.6353 18.4177 54.8765 18.5847C55.0434 18.7145 55.2104 18.8444 55.2475 18.8629ZM64.1335 21.6085C64.0779 21.6642 63.9665 21.5714 63.9109 21.3859C63.7996 21.1262 63.8181 21.1076 64.0037 21.2746C64.1335 21.4044 64.1892 21.5529 64.1335 21.6085ZM64.3561 24.855C64.9869 26.6359 65.7475 28.7693 66.0443 29.6041C66.3411 30.4389 66.5823 31.218 66.5823 31.3664C66.5637 31.6632 66.2669 32.0714 65.7475 32.4609C65.3764 32.7207 65.3764 32.7207 65.7104 32.3311C66.0257 31.9601 66.0257 31.9415 65.7289 31.9786C65.3393 31.9972 64.5973 30.5687 62.7607 26.3391C62.0743 24.7622 61.4436 23.3709 61.3508 23.241C61.221 23.0926 61.3323 22.9442 61.7033 22.7587C61.9816 22.6103 62.4268 22.2578 62.668 21.9981C62.9277 21.7384 63.1317 21.5343 63.1688 21.5714C63.1874 21.5899 63.7068 23.074 64.3561 24.855ZM65.4692 22.5361C65.4692 22.6288 65.3764 22.5917 65.2837 22.4433C65.1909 22.2949 65.0982 22.0723 65.0982 21.9795C65.0982 21.8682 65.1909 21.9239 65.2837 22.0723C65.3764 22.2207 65.4692 22.4248 65.4692 22.5361ZM26.1407 23.241C26.1407 23.2781 25.9552 23.4636 25.7326 23.6677L25.3059 24.0202L25.6584 23.5935C25.9923 23.2039 26.1407 23.0926 26.1407 23.241ZM60.4604 23.4451C60.4604 23.4822 60.3305 23.5564 60.1821 23.6306C60.0337 23.6862 59.9038 23.6491 59.9038 23.5564C59.9038 23.4451 60.0337 23.3709 60.1821 23.3709C60.3305 23.3709 60.4604 23.408 60.4604 23.4451ZM60.7757 25.2631C60.7201 25.4115 60.6644 25.3558 60.6644 25.1518C60.6459 24.9477 60.7015 24.8364 60.7572 24.9106C60.8128 24.9663 60.8314 25.1332 60.7757 25.2631ZM61.1653 26.0608C61.1097 26.1164 60.9984 26.0237 60.9427 25.8382C60.8314 25.5785 60.85 25.5599 61.0355 25.7269C61.1653 25.8567 61.221 26.0051 61.1653 26.0608ZM66.2854 27.6376C66.3411 27.8973 66.2483 27.7675 66.0443 27.3594C65.8588 26.9512 65.6547 26.4133 65.5805 26.1535C65.5248 25.8938 65.6176 26.0237 65.8217 26.4318C66.0072 26.8399 66.2112 27.3779 66.2854 27.6376ZM61.759 27.3594C61.759 27.4521 61.6662 27.415 61.5734 27.2666C61.4807 27.1182 61.3879 26.8956 61.3879 26.8028C61.3879 26.6915 61.4807 26.7472 61.5734 26.8956C61.6662 27.044 61.759 27.2481 61.759 27.3594ZM19.8519 32.294C19.6849 32.7021 19.6663 32.7021 19.6663 32.3496C19.6478 32.1456 19.7034 31.9044 19.7777 31.8487C20.0003 31.6261 20.0374 31.8488 19.8519 32.294ZM66.1741 34.279C66.5637 35.2993 66.5452 35.3549 65.6918 35.6332C65.3022 35.763 65.3579 35.763 65.9515 35.6888C66.675 35.5961 66.7121 35.6146 66.8976 36.2454C67.1017 36.8947 67.0831 36.9132 66.6565 36.8019C66.3968 36.7277 66.0814 36.7834 65.933 36.9132C65.766 37.0431 65.6176 37.1173 65.5619 37.0802C65.4877 36.9874 64.1706 33.945 64.1706 33.8337C64.1706 33.7966 64.319 33.7595 64.5045 33.7595C64.6715 33.741 65.024 33.6297 65.2837 33.4813C65.5434 33.3514 65.766 33.2401 65.7846 33.2586C65.8031 33.2772 65.9701 33.741 66.1741 34.279ZM66.9718 37.5254C66.7863 37.6924 66.7678 37.6738 66.8791 37.4141C66.9347 37.2286 67.046 37.1358 67.1017 37.1915C67.1573 37.2471 67.1017 37.3956 66.9718 37.5254ZM66.5452 38.3231C66.4153 38.6014 66.2854 38.7127 66.2483 38.6014C66.2112 38.4715 66.2854 38.2675 66.3968 38.119C66.7307 37.7109 66.7863 37.7851 66.5452 38.3231ZM4.52859 43.7957C5.27063 44.445 5.5118 45.1314 5.17788 45.5395C4.82541 45.9476 4.38018 45.8734 3.84219 45.2984C3.06304 44.5007 2.91463 43.2206 3.58248 43.2206C3.74944 43.2206 4.15756 43.4803 4.52859 43.7957ZM72.5743 54.3699C72.2775 54.7595 71.1458 56.3178 70.0142 57.8575L67.9736 60.6587L66.9533 60.5103C64.3005 60.1578 63.781 60.399 63.6512 62.0315C63.577 62.9776 63.6141 63.0889 64.1335 63.6269C65.2095 64.6843 66.2854 64.2762 67.6211 62.2912C68.122 61.5492 69.5319 59.5642 70.7563 57.8761L72.9824 54.8151L73.0381 57.7647C73.0566 59.5642 73.1679 60.8257 73.2792 60.9741C73.4091 61.104 73.8358 61.2153 74.2439 61.2153H75.0045L74.0955 62.1614C71.4612 64.8513 66.5637 66.9661 62.9277 66.9661H61.3879V66.2241C61.3879 64.9997 60.85 62.6994 60.2563 61.4193C59.9595 60.77 59.069 59.2674 58.2713 58.0801C56.0081 54.7038 55.7669 53.2939 56.9542 50.2886C57.9931 47.6358 57.6406 47.4503 60.5717 52.255L63.1503 56.4847L64.0964 56.5404C64.7457 56.5775 65.1353 56.5033 65.3022 56.3363C65.4506 56.1879 67.2316 53.4794 69.2722 50.2886L72.9824 44.5007L73.0381 49.1013L73.0752 53.6835L72.5743 54.3699ZM42.9666 45.6694C42.9295 45.9105 42.8924 45.7621 42.8924 45.354C42.8739 44.9459 42.911 44.7604 42.9666 44.9273C43.0037 45.1128 43.0037 45.4468 42.9666 45.6694ZM7.96055 48.3593C9.01797 49.6393 10.0568 50.9008 10.2609 51.1605L10.6134 51.6243L10.1681 51.3831C9.76002 51.1605 9.74147 51.1605 9.98263 51.4388C10.1125 51.6243 10.1496 51.7542 10.0383 51.7542C9.74147 51.7542 5.36339 46.4856 5.36339 46.1146C5.36339 46.059 5.5118 46.0033 5.69731 46.0033C5.88282 46.0033 6.82893 47.0051 7.96055 48.3593ZM43.0223 46.8196C43.0223 47.0793 42.8739 47.3204 42.7069 47.3946C42.4286 47.4874 42.4101 47.4688 42.6141 47.2833C42.7255 47.1535 42.8368 46.8938 42.8368 46.7082C42.8368 46.5227 42.8739 46.3743 42.9295 46.3743C42.9852 46.3743 43.0223 46.5784 43.0223 46.8196ZM49.6079 48.7303C51.092 50.1588 51.4631 52.4406 50.5169 54.3328C49.979 55.4087 48.6247 56.5775 48.3836 56.1879C48.2352 55.9467 48.365 55.4644 48.5691 55.4644C48.8473 55.4644 49.8491 53.8504 50.0717 53.0898C50.3685 51.9211 50.0532 50.5298 49.2369 49.5651C48.6433 48.8787 48.365 48.0439 48.736 48.0439C48.8288 48.0439 49.2184 48.3593 49.6079 48.7303ZM89.4744 49.1941C89.5301 49.4353 89.5857 50.066 89.5857 50.604V51.6058L88.6211 51.4944C86.5433 51.2347 86.2465 51.1605 86.061 50.8266C85.9126 50.5483 85.5045 50.4741 83.2227 50.3628C81.7571 50.2886 80.4585 50.1773 80.3472 50.1031C80.2174 50.0289 80.069 49.7135 80.0133 49.3796L79.902 48.786H84.6326H89.3631L89.4744 49.1941ZM25.6027 53.702C27.2723 55.9467 29.2387 58.5624 29.9993 59.5086C31.0197 60.8071 31.3536 61.3637 31.2794 61.6419C31.2237 61.8646 31.0197 62.588 30.8341 63.2373L30.4817 64.4061L29.3315 62.8292C27.0683 59.7312 24.0259 57.0598 21.1504 55.6685L19.5736 54.9079L19.5365 53.7948C19.4994 52.7374 19.5365 52.6261 20.2414 51.6985C21.336 50.2886 22.3006 49.324 22.449 49.4909C22.5047 49.5651 23.9331 51.4573 25.6027 53.702ZM88.8066 52.051C89.6785 52.1623 89.7156 52.2736 89.4744 54.0545C89.326 55.0377 89.3631 55.0377 87.3225 54.5925C85.9497 54.2957 85.8755 54.2586 85.8755 53.7762C85.8755 53.2197 85.7642 53.2012 81.9797 52.6632C81.1078 52.5519 80.273 52.3849 80.1246 52.2921C79.4939 51.9582 80.5513 51.9211 82.7589 52.1994C85.7642 52.589 85.9868 52.589 86.1166 52.1252C86.2094 51.7356 86.1723 51.7356 88.8066 52.051ZM10.465 52.3107C10.6505 52.5148 10.7618 52.6817 10.7061 52.6817C10.6505 52.6817 10.465 52.5148 10.2794 52.3107C10.0939 52.1066 9.98263 51.9397 10.0383 51.9397C10.0939 51.9397 10.2795 52.1066 10.465 52.3107ZM82.963 54.7409C85.0592 55.2418 85.5601 55.316 85.69 55.1119C85.8198 54.8893 86.1166 54.9079 87.4338 55.1861C88.3242 55.3716 89.0848 55.5757 89.1219 55.6499C89.2332 55.8169 88.6767 58.1172 88.4912 58.3027C88.3613 58.4326 80.5698 55.9096 79.7165 55.4458C79.4568 55.316 79.4011 55.1305 79.4939 54.7595C79.6794 54.036 79.7536 53.9618 80.0875 54.0545C80.273 54.1102 81.5531 54.4255 82.963 54.7409ZM19.1098 55.5943C19.7034 55.7056 19.7034 55.7241 19.2953 55.8354C18.8315 55.9467 18.5162 56.392 18.8872 56.392C19.1469 56.392 20.8165 57.4679 22.0038 58.414C24.2299 60.1764 27.2909 63.8681 26.957 64.3875C26.8827 64.5174 26.9013 64.5545 27.0126 64.4988C27.4207 64.2391 27.6619 65.3707 27.6248 67.4856C27.6248 68.3575 27.6805 68.6357 27.8289 68.5244C27.9587 68.4502 27.9958 68.4688 27.9216 68.5986C27.866 68.6914 27.9216 68.8398 28.0329 68.8954C28.1628 68.9511 28.0329 68.9511 27.7176 68.8954C27.2909 68.8212 27.2167 68.8398 27.4393 68.9882C27.6805 69.1737 27.6805 69.1923 27.4393 69.1923C27.1981 69.1923 27.1981 69.2108 27.4393 69.3778C27.9216 69.6746 27.4578 69.5818 26.4561 69.1552C24.8236 68.4688 22.9685 67.1516 21.0762 65.3151C18.9614 63.2744 17.4217 61.104 16.7724 59.2674C16.0674 57.2639 16.1602 56.225 17.1063 55.7612C17.7741 55.4458 18.2008 55.4087 19.1098 55.5943ZM20.3713 56.0024C20.5382 56.1137 20.4826 56.1508 20.1301 56.1508C19.8704 56.1508 19.7034 56.0951 19.7591 56.0024C19.889 55.7983 20.0374 55.7983 20.3713 56.0024ZM84.4099 57.672C86.3022 58.3213 87.9718 58.9149 88.1016 58.9891C88.3057 59.119 88.25 59.3787 87.8419 60.3619C87.5451 61.0298 87.2668 61.5863 87.1926 61.5863C87.137 61.5863 86.4506 61.2524 85.69 60.8813C84.5583 60.3063 84.2986 60.0836 84.2986 59.7312C84.2986 59.3601 83.9276 59.1561 81.6087 58.1172C80.1246 57.4494 78.8817 56.8743 78.8446 56.8372C78.8075 56.8001 78.8631 56.5589 78.9744 56.2992L79.1971 55.8354L80.069 56.1879C80.5699 56.3734 82.5177 57.0412 84.4099 57.672ZM19.5365 56.3177C19.6292 56.5775 19.6107 56.596 19.3695 56.392C19.0542 56.1322 19.0171 56.0209 19.2582 56.0209C19.351 56.0209 19.4808 56.1508 19.5365 56.3177ZM21.2246 56.392C21.2803 56.5033 21.2061 56.5218 21.0577 56.4662C20.7238 56.3363 20.6681 56.2064 20.9278 56.2064C21.0391 56.2064 21.169 56.2806 21.2246 56.392ZM24.4896 58.5624C24.7308 58.8593 24.7123 58.8778 24.434 58.6366C24.1186 58.3955 24.0259 58.2471 24.1743 58.2471C24.2114 58.2471 24.3598 58.3955 24.4896 58.5624ZM81.9983 60.399C83.1114 61.0669 83.5751 61.1782 83.705 60.7886C83.7606 60.6402 84.243 60.7886 85.3004 61.308C86.1538 61.7161 86.8772 62.1057 86.9143 62.1614C86.9886 62.2912 86.4135 63.3857 85.8384 64.1649L85.523 64.6101L84.6882 64.0721C84.2244 63.7753 82.9444 62.9591 81.8499 62.2541C80.7554 61.5492 79.2713 60.6031 78.5849 60.1578L77.3234 59.3416L77.713 58.8036L78.1211 58.2471L79.531 59.0077C80.3287 59.4343 81.4232 60.0651 81.9983 60.399ZM15.2326 61.0669L15.7891 62.3098L14.9358 63.664C14.4535 64.4061 14.1195 65.111 14.1752 65.2409C14.268 65.5006 11.578 69.3778 11.3183 69.3778C11.1514 69.3778 10.6876 68.2091 10.3722 67.0032L10.1681 66.187L11.5038 64.035C13.8227 60.2877 14.5277 59.2859 14.6019 59.5642C14.639 59.7126 14.9358 60.3805 15.2326 61.0669ZM26.419 60.2877C26.6045 60.4918 26.7158 60.6587 26.6601 60.6587C26.6045 60.6587 26.419 60.4918 26.2335 60.2877C26.0479 60.0836 25.9366 59.9167 25.9923 59.9167C26.0479 59.9167 26.2335 60.0836 26.419 60.2877ZM79.1785 61.1411C82.5177 63.2188 85.1334 64.9997 85.1334 65.2223C85.1334 65.3151 84.7253 65.8531 84.243 66.4096L83.3525 67.3928L82.1096 66.2426C81.1078 65.2965 80.9038 65.0183 81.0522 64.7585C81.182 64.4988 81.0893 64.2948 80.6255 63.8681C79.9762 63.2559 77.2492 61.104 76.7669 60.7886C76.5071 60.6402 76.4886 60.5289 76.6556 60.2506C76.7854 60.0651 76.9524 59.9167 77.0451 59.9167C77.1379 59.9167 78.084 60.4732 79.1785 61.1411ZM66.8234 61.1411L67.5098 61.2709L67.1017 61.9388C66.1185 63.5898 65.0796 64.0907 64.4674 63.2188C64.115 62.7179 64.0779 61.5677 64.3932 61.2524C64.6344 61.0112 65.7104 60.9741 66.8234 61.1411ZM78.288 64.3133C79.3455 65.3336 79.8649 65.6861 80.1061 65.6119C80.3658 65.5562 80.8481 65.8716 81.7571 66.6879L83.0557 67.8566L82.1281 68.747L81.2191 69.656L77.8799 66.2241C76.0619 64.3319 74.5593 62.755 74.5593 62.7179C74.5593 62.6623 74.7448 62.4396 74.9488 62.1985L75.357 61.7903L76.0805 62.3469C76.47 62.6623 77.4718 63.5527 78.288 64.3133ZM17.2361 62.9034C17.5144 63.4229 17.3289 63.3301 16.9579 62.7736C16.7909 62.4953 16.7353 62.3469 16.8466 62.4025C16.9579 62.4767 17.1434 62.6994 17.2361 62.9034ZM76.3402 65.4264C77.5646 66.6322 79.0487 68.1905 79.6608 68.8954L80.7739 70.1569L80.1246 70.7135C78.9373 71.7152 78.6776 71.8636 78.3623 71.6039C77.7501 71.0845 76.1547 68.747 76.3773 68.6728C76.4886 68.6357 76.5999 68.5244 76.5999 68.4317C76.5999 68.3389 75.8022 67.2815 74.8375 66.0757L73.0752 63.9052L73.5019 63.5898C73.7245 63.4043 73.9656 63.2559 74.0213 63.2559C74.0769 63.2559 75.1343 64.2391 76.3402 65.4264ZM20.3713 67.5598C21.3174 68.4688 22.1522 69.1923 22.2635 69.1923C22.5789 69.1923 22.4305 69.6004 21.8368 70.3795C21.5029 70.7877 21.1319 71.2514 21.002 71.3813C20.8722 71.5297 20.798 71.7152 20.8722 71.808C20.9649 71.9749 18.5904 75.2399 18.0524 75.7037C17.5515 76.1119 13.4703 72.7726 12.2459 70.9175L11.6893 70.0827L13.1734 68.0606C14.1566 66.7435 14.7874 66.0386 15.01 66.0386C15.2326 66.0386 15.6407 65.6304 16.1231 64.9255L16.8837 63.8124L17.7741 64.8698C18.2565 65.4635 19.4252 66.6693 20.3713 67.5598ZM73.4462 67.0774C74.5593 68.543 75.2271 69.285 75.4683 69.285C75.7094 69.285 76.2474 69.823 76.9524 70.7506L78.084 72.2347L77.5646 72.5686C77.0266 72.9396 75.7465 73.6445 75.5981 73.6445C75.561 73.6445 75.1158 72.9211 74.6335 72.0306C73.9842 70.8248 73.8172 70.361 73.9471 70.1384C74.0955 69.8972 73.8172 69.3221 72.6856 67.5412C71.554 65.7417 71.2757 65.1667 71.4427 64.9812C71.554 64.8513 71.6838 64.7585 71.7209 64.7956C71.758 64.8327 72.5372 65.8531 73.4462 67.0774ZM71.3499 68.7841C72.296 70.6207 72.4815 70.8619 72.834 70.7691C73.1679 70.6949 73.3534 70.899 74.0769 72.2347C74.5407 73.088 74.9303 73.8672 74.9303 73.9785C74.9303 74.1454 72.8711 75.1286 72.5001 75.1286C72.4073 75.1286 72.3331 75.0544 72.3331 74.9617C72.3331 74.8689 71.5911 73.0695 70.6635 70.9732C68.66 66.3725 68.66 66.3539 69.2165 66.0942C69.7731 65.8345 69.94 66.0571 71.3499 68.7841ZM68.9383 68.3946C69.3649 69.3963 70.1997 71.3442 70.8119 72.717C71.4241 74.0898 71.8879 75.2771 71.8508 75.3513C71.7951 75.4255 71.2015 75.6666 70.5337 75.8707C69.6618 76.149 69.2536 76.1861 69.1794 76.0377C69.1052 75.9263 68.8641 75.1657 68.6229 74.3309C68.2519 72.9767 68.2519 72.8097 68.5116 72.6057C68.6786 72.4944 68.8084 72.3274 68.8084 72.2347C68.8084 72.1419 68.4745 70.9175 68.0478 69.4891C67.4171 67.3928 67.3243 66.8919 67.5284 66.7621C68.0293 66.4467 68.1777 66.6137 68.9383 68.3946ZM66.304 70.1013C66.8234 72.1976 67.0646 72.884 67.3058 72.9582C67.5284 73.0138 67.7695 73.5147 68.0664 74.4979C68.289 75.2956 68.5301 76.0562 68.5672 76.1861C68.66 76.4087 67.1573 76.7982 66.2298 76.7982C65.7104 76.7982 65.7104 76.7797 65.5063 75.1657C65.3393 73.7559 65.3393 73.5147 65.5991 73.3292C65.8773 73.1066 65.8773 72.9025 65.5991 70.9175C65.4135 69.7117 65.228 68.4131 65.1724 68.0235C65.0796 67.4856 65.1167 67.3371 65.3393 67.3371C65.5434 67.3371 65.7846 68.0606 66.304 70.1013ZM61.759 72.3645V77.2064L60.4233 77.0765C59.6812 77.0023 59.0505 76.9281 59.0319 76.9096C58.9206 76.8168 59.4401 73.4961 59.607 73.2921C59.9595 72.8468 60.8314 70.4166 61.1468 68.9511C61.3323 68.172 61.5363 67.5227 61.6106 67.5227C61.7033 67.5227 61.759 69.6931 61.759 72.3645ZM63.5028 68.3946C63.5584 68.7841 63.7068 70.0827 63.8181 71.27C64.0037 73.1437 64.0964 73.459 64.3561 73.459C64.7457 73.459 64.857 73.8486 65.024 75.6295L65.1538 76.9281L64.5416 77.0394C64.2077 77.1136 63.577 77.1693 63.1317 77.1693H62.3155V72.7355C62.3155 70.2868 62.3711 68.172 62.4268 68.005C62.4825 67.838 62.7422 67.7082 62.9648 67.7082C63.3173 67.7082 63.41 67.838 63.5028 68.3946ZM24.0073 68.6728C24.5268 68.914 24.5639 69.0253 24.267 69.3221C23.9702 69.6189 23.154 69.081 23.3024 68.7099C23.4137 68.3946 23.4137 68.3946 24.0073 68.6728ZM28.2184 69.4705C28.2184 69.5633 28.1257 69.656 28.0144 69.6746C27.866 69.7117 27.8845 69.6931 28.0144 69.6189C28.1628 69.5447 28.1442 69.4705 27.9773 69.3407C27.7732 69.1923 27.7732 69.1737 27.9587 69.2294C28.1071 69.2665 28.2184 69.3778 28.2184 69.4705ZM28.8677 69.8601C28.8121 69.9158 28.6451 69.9343 28.5153 69.8787C28.3668 69.823 28.4225 69.7674 28.6266 69.7674C28.8306 69.7488 28.9419 69.8045 28.8677 69.8601ZM26.9755 71.6781L28.2741 72.0677L25.6398 74.6092L23.0056 77.1693H22.0038C20.9464 77.1693 19.3695 76.7797 18.8686 76.3901C18.5904 76.1675 18.7017 75.9634 19.9632 74.3866C20.8536 73.255 21.4658 72.6428 21.6699 72.6613C21.8554 72.6799 22.4861 72.2161 23.0798 71.6039L24.1557 70.5094L24.9163 70.9175C25.343 71.1216 26.2706 71.4741 26.9755 71.6781ZM58.7166 75.073C58.4939 76.8725 58.5125 76.8539 57.5293 76.7055C57.047 76.6313 56.6017 76.5385 56.5275 76.5014C56.4162 76.4272 58.5682 74.0527 58.7722 74.0341C58.8093 74.0156 58.7722 74.4979 58.7166 75.073ZM56.1194 75.6295C55.5814 76.0933 55.266 76.1675 55.266 75.8521C55.266 75.7594 55.3402 75.7037 55.4145 75.7594C55.6 75.8707 56.1009 75.5739 56.1194 75.3142C56.1751 74.9431 56.1936 74.9246 56.4162 75.0544C56.5646 75.1472 56.4533 75.3327 56.1194 75.6295ZM54.9692 75.5553C54.6724 75.9263 54.2643 76.1675 52.7616 76.8168C52.0938 77.1136 50.7767 77.5403 50.5541 77.5403C50.4427 77.5403 51.0364 77.262 51.8897 76.9096C52.7245 76.5756 53.8191 76.0377 54.3014 75.7223C54.7837 75.4069 55.1918 75.1472 55.2289 75.1472C55.266 75.1286 55.1362 75.3142 54.9692 75.5553ZM54.2272 76.7797C54.2828 76.8725 54.2272 76.9838 54.0973 77.0394C53.9489 77.0951 53.8376 77.0209 53.8376 76.8725C53.8376 76.5756 54.0788 76.52 54.2272 76.7797ZM53.5037 77.1693C53.448 77.262 53.2069 77.4475 52.9843 77.5588C52.5947 77.7444 52.5947 77.7258 53.0214 77.3733C53.4851 76.9467 53.6892 76.8725 53.5037 77.1693ZM46.0832 77.5403C45.5823 77.7629 45.2855 77.7629 45.6194 77.5403C45.7678 77.4475 46.0276 77.3733 46.176 77.3733C46.3615 77.3733 46.3244 77.429 46.0832 77.5403ZM52.4277 77.6331C52.4277 77.7815 52.3535 77.8557 52.2608 77.8C52.168 77.7444 52.1495 77.6145 52.2051 77.5217C52.3721 77.2806 52.4277 77.3177 52.4277 77.6331ZM50.6839 77.8186C51.1848 78.0226 51.3517 78.0412 51.426 77.8557C51.4816 77.6887 51.5744 77.6887 51.7228 77.8371C52.001 78.0968 50.1088 78.6534 48.6062 78.7461C47.623 78.8203 47.7343 78.7647 49.1071 78.5421C49.441 78.4864 49.6636 78.3751 49.6079 78.2823C49.5523 78.2081 49.812 78.1525 50.2016 78.1896C50.8323 78.2267 50.8509 78.2081 50.5169 77.967C50.3314 77.8186 49.9975 77.7629 49.7935 77.8186C49.5894 77.8742 49.0885 77.967 48.6804 78.0226C48.2908 78.0783 47.9012 78.1525 47.8456 78.1896C47.7899 78.2267 47.623 78.1896 47.4746 78.0783C47.2705 77.967 47.4003 77.9113 47.9383 77.8928C48.3465 77.8742 48.9401 77.8 49.2369 77.7258C49.5523 77.6516 49.8491 77.5774 49.9048 77.5588C49.979 77.5588 50.3314 77.6702 50.6839 77.8186ZM46.5099 78.2267C46.3244 78.2638 46.0276 78.2638 45.8606 78.2267C45.6751 78.171 45.8235 78.1339 46.176 78.1339C46.5284 78.1339 46.6769 78.171 46.5099 78.2267ZM46.9737 78.9687C46.6398 79.0058 46.0832 79.0058 45.7678 78.9687C45.4339 78.9316 45.6936 78.8945 46.3615 78.8945C47.0293 78.8945 47.289 78.9316 46.9737 78.9687Z" fill="white"/>
<path d="M46.4728 3.63242C45.7864 4.30026 46.2873 5.19072 47.3447 5.19072C47.827 5.19072 48.0311 4.8939 48.0311 4.1704C48.0311 3.42836 47.0108 3.07588 46.4728 3.63242Z" fill="white"/>
<path d="M47.493 5.67305C47.493 5.87711 47.5487 5.93276 47.6043 5.78435C47.66 5.65449 47.6414 5.48753 47.5858 5.43188C47.5301 5.35768 47.4745 5.46898 47.493 5.67305Z" fill="white"/>
<path d="M47.5116 10.7932C47.4745 13.1306 47.493 13.3347 47.7899 13.2234C47.9939 13.1492 48.0125 13.075 47.8826 13.0193C47.5301 12.908 47.6229 12.6112 47.9939 12.6112C48.1794 12.6112 48.3464 12.4999 48.3464 12.37C48.3464 12.2216 48.2351 12.1103 48.1052 12.1103C47.9754 12.1103 47.9012 12.1845 47.9568 12.2773C48.0125 12.3515 47.9754 12.4257 47.8641 12.4257C47.7528 12.4257 47.6414 11.6094 47.6043 10.3294L47.5487 8.25168L47.5116 10.7932Z" fill="white"/>
<path d="M50.9993 55.483C50.9993 55.5757 51.0921 55.6128 51.1848 55.5572C51.2961 55.5015 51.3703 55.4088 51.3703 55.3531C51.3703 55.316 51.2961 55.2789 51.1848 55.2789C51.0921 55.2789 50.9993 55.3716 50.9993 55.483Z" fill="white"/>
<path d="M48.0682 59.0262C48.0868 60.5474 48.0868 60.566 48.1981 59.4529C48.2537 58.8407 48.3836 58.2285 48.4578 58.0987C48.5505 57.9688 48.5134 57.8761 48.365 57.8761C48.1981 57.8761 48.1981 57.8204 48.4021 57.6905C48.6433 57.5421 48.6247 57.505 48.365 57.505C48.0682 57.505 48.0311 57.6905 48.0682 59.0262Z" fill="white"/>
<path d="M58.7165 71.641C58.7721 71.7338 58.902 71.7523 58.9947 71.6967C59.2359 71.5297 59.1988 71.4741 58.8834 71.4741C58.735 71.4741 58.6608 71.5483 58.7165 71.641Z" fill="white"/>
<path d="M50.6282 73.3663C50.6282 73.5147 50.7209 73.6446 50.8137 73.6446C50.925 73.6446 50.9992 73.5147 50.9992 73.3663C50.9992 73.2179 50.925 73.088 50.8137 73.088C50.7209 73.088 50.6282 73.2179 50.6282 73.3663Z" fill="white"/>
<path d="M52.3905 73.4776C52.3163 73.5889 52.2977 73.7002 52.3534 73.7559C52.3905 73.8115 52.4833 73.7188 52.5389 73.5518C52.6688 73.2364 52.5575 73.1808 52.3905 73.4776Z" fill="white"/>
<path d="M29.0904 19.8276C28.9605 20.1244 28.7935 20.347 28.7193 20.2914C28.6451 20.2543 28.5524 20.347 28.4967 20.4954C28.4225 20.6624 28.4782 20.7181 28.6451 20.6624C28.9234 20.5511 29.5356 19.4751 29.4057 19.3453C29.3686 19.3082 29.2202 19.5122 29.0904 19.8276Z" fill="white"/>
<path d="M65.1908 35.0581C64.894 35.188 64.8754 35.2251 65.1352 35.2251C65.3021 35.2436 65.5062 35.1509 65.5618 35.0581C65.6917 34.854 65.6917 34.854 65.1908 35.0581Z" fill="white"/>
<path d="M65.8401 36.3567C65.6917 36.4494 65.6546 36.5422 65.7474 36.5422C65.8587 36.5422 66.0627 36.4494 66.2111 36.3567C66.3596 36.2639 66.4152 36.1712 66.3039 36.1712C66.2111 36.1712 65.9885 36.2639 65.8401 36.3567Z" fill="white"/>
<path d="M23.5064 68.9511C23.6363 69.0068 23.8032 68.9882 23.8589 68.9326C23.9331 68.8769 23.8218 68.8213 23.6177 68.8398C23.4137 68.8398 23.358 68.8955 23.5064 68.9511Z" fill="white"/>
<path d="M14.6389 13.3718C14.6389 13.4831 15.1769 14.7075 15.8447 16.0988C16.5126 17.4716 17.032 18.6218 17.0135 18.6403C16.9764 18.6589 16.6981 18.7702 16.3642 18.9C14.6018 19.605 14.472 21.59 16.1972 21.59C16.9764 21.59 17.6999 21.1262 18.0894 20.3656C18.3863 19.7719 18.3863 19.7719 17.3474 17.7684C16.7723 16.6739 16.3085 15.635 16.3085 15.4866C16.3085 15.1156 17.2175 15.1156 17.7555 15.5052C18.2378 15.8391 18.7202 16.711 18.7202 17.249C18.7202 17.453 18.8129 17.62 18.9057 17.62C19.017 17.62 19.0912 17.2119 19.0912 16.711C19.0912 16.0803 18.9799 15.6721 18.6831 15.3011C18.2564 14.7446 17.0135 14.1138 16.3642 14.0953C16.1416 14.0953 15.7149 13.8912 15.4181 13.6315C14.8059 13.1121 14.6389 13.0564 14.6389 13.3718Z" fill="url(#paint0_linear_1_5)"/>
<path d="M35.4162 17.8426C35.4162 18.1951 36.0841 20.6995 36.2325 20.9407C36.3067 21.052 36.251 21.1447 36.0841 21.1447C35.5275 21.1447 34.8411 21.59 34.7484 22.0166C34.5258 22.9071 35.6017 23.3338 36.5107 22.703C36.9931 22.3506 36.9745 21.8311 36.4551 20.1615C36.2325 19.4566 36.2139 19.2896 36.418 19.2896C36.9189 19.2896 37.5125 19.9575 37.5311 20.5511C37.5496 21.0705 37.5867 21.1076 37.7908 20.8294C38.2917 20.143 37.865 19.2711 36.6777 18.5476C36.1954 18.2507 35.7872 17.9168 35.7872 17.8055C35.7872 17.7128 35.713 17.62 35.6017 17.62C35.509 17.62 35.4162 17.7313 35.4162 17.8426Z" fill="url(#paint1_linear_1_5)"/>
<path d="M74.8375 20.5325C74.652 22.7772 74.6891 22.7216 73.7987 22.7216C73.0937 22.7216 72.5186 23.1112 72.5186 23.5935C72.5186 23.9274 73.2978 24.4839 73.7801 24.4839C74.7819 24.4839 75.0601 24.0758 75.2085 22.4433C75.2828 21.6271 75.3941 20.9592 75.4683 20.9592C75.8949 20.9592 76.266 21.7198 76.1918 22.4433C76.1547 22.8514 76.1547 23.1854 76.2103 23.1854C76.4515 23.1854 76.7668 22.4433 76.7854 21.8497C76.7854 21.2931 76.637 20.9778 76.1361 20.4212C75.7836 20.0317 75.4868 19.5679 75.4868 19.4009C75.4868 19.234 75.3755 19.1041 75.2271 19.1041C75.023 19.1041 74.9303 19.4751 74.8375 20.5325Z" fill="url(#paint2_linear_1_5)"/>
<path d="M5.36327 32.5352C5.36327 32.832 5.86415 35.3178 6.03111 35.8373C6.10532 36.0599 6.03111 36.1712 5.82705 36.1712C5.32617 36.1712 4.49136 36.6906 4.39861 37.0616C4.08324 38.2489 6.01256 38.5457 6.73606 37.4327C6.97722 37.0431 6.95867 36.8761 6.53199 35.559C6.25373 34.7798 6.08676 34.0749 6.14242 34.0192C6.30938 33.8523 7.34824 34.4459 7.4781 34.7798C7.53376 34.9468 7.58941 35.2993 7.58941 35.5404C7.58941 35.8002 7.66361 35.9486 7.77492 35.8929C8.07174 35.7074 7.99754 34.4459 7.66361 33.9821C7.51521 33.7595 7.06998 33.4071 6.6804 33.203C6.29083 33.0175 5.9198 32.7207 5.86415 32.5537C5.71574 32.2012 5.36327 32.1827 5.36327 32.5352Z" fill="url(#paint3_linear_1_5)"/>
<path d="M86.3948 32.7763C85.9496 33.2958 84.0203 37.0245 84.0203 37.3585C84.0203 37.8964 84.9108 38.5272 86.1537 38.8797C87.4152 39.2507 87.545 39.3991 87.0812 39.9927C86.9328 40.1782 86.8215 40.5122 86.8215 40.7162C86.803 41.1058 87.9903 42.8496 88.2685 42.8496C88.5097 42.8496 88.788 42.46 89.1961 41.4954L89.5671 40.6235L88.9178 39.7887L88.2871 38.9539L88.9549 37.4883C89.4929 36.301 89.5857 35.9486 89.4187 35.6517C89.0848 35.0396 87.007 32.4609 86.8215 32.4609C86.7473 32.4609 86.5433 32.6094 86.3948 32.7763ZM87.3224 36.0228C88.2685 37.4327 88.2871 37.4512 88.0088 38.1005L87.7305 38.7498L86.7659 38.4715C84.3542 37.748 84.3357 37.6924 85.3374 35.8002C85.7827 34.9839 86.1908 34.3717 86.265 34.4459C86.3206 34.5387 86.803 35.2436 87.3224 36.0228ZM88.5653 41.3655C88.3984 41.6623 88.25 41.922 88.2129 41.922C88.1758 41.922 87.9717 41.6438 87.7862 41.3099C87.4523 40.7533 87.4337 40.6606 87.6934 40.104L87.9717 39.5104L88.4169 40.1597C88.8251 40.7719 88.8436 40.8275 88.5653 41.3655Z" fill="url(#paint4_linear_1_5)"/>
<path d="M83.9276 72.346C83.7235 72.6984 83.3525 73.4776 83.0742 74.0712C82.6661 74.9988 82.5548 75.1101 82.3507 74.8504C81.9983 74.4237 80.9223 74.4794 80.6811 74.9431C80.3843 75.4811 80.6069 75.982 81.2191 76.2417C82.2394 76.6498 82.5734 76.4458 83.2783 74.9802C83.7977 73.9043 83.9647 73.6631 84.1688 73.8486C84.4285 74.1269 84.4656 75.4255 84.2059 75.5924C84.1131 75.6481 84.0204 75.7965 84.0204 75.9078C84.0204 76.2232 84.7809 75.4626 84.9665 74.9802C85.0778 74.6834 85.0221 74.2196 84.7809 73.4961C84.5769 72.9211 84.3914 72.2718 84.3543 72.0677C84.2986 71.7523 84.2244 71.7894 83.9276 72.346Z" fill="url(#paint5_linear_1_5)"/>
<path d="M81.7385 84.5526C81.386 84.9422 81.3489 85.3875 81.6086 85.9069C81.8312 86.315 83.0556 86.4078 83.4266 86.0367C83.7977 85.6657 83.7049 84.6269 83.2968 84.4042C82.7402 84.126 82.0724 84.1816 81.7385 84.5526Z" fill="white"/>
<path d="M0.539947 89.4131V94.4219L0.985175 94.5332C1.22634 94.5888 1.69012 94.6074 2.04259 94.5703L2.67333 94.5146L2.72899 93.1047C2.78464 91.7691 2.82174 91.6577 3.41538 91.0827C3.80495 90.6931 4.12032 90.5261 4.23163 90.6374C4.30584 90.7302 5.02933 91.6577 5.80848 92.6966L7.23692 94.6074H8.34999C9.14769 94.6074 9.48161 94.5332 9.55582 94.3291C9.63002 94.1807 9.07349 93.3088 8.18303 92.1586C7.38533 91.1012 6.47632 89.8954 6.19806 89.4502L5.67862 88.6525L7.6636 86.6489C8.73957 85.5544 9.59292 84.6083 9.51872 84.5341C9.44451 84.4599 8.86942 84.4042 8.23868 84.4042H7.08851L5.02933 86.5376C3.87916 87.7063 2.9145 88.671 2.85884 88.671C2.80319 88.671 2.76609 87.7063 2.76609 86.5376V84.4042H1.65302H0.539947V89.4131Z" fill="white"/>
<path d="M32.448 86.0924V87.762L31.9657 87.391C30.4816 86.2223 27.8473 87.1498 27.1238 89.0977C26.6044 90.5261 26.9383 92.6595 27.8659 93.6427C28.812 94.663 30.4816 94.9228 31.7431 94.2364C32.3738 93.9024 32.448 93.9024 32.5964 94.1807C32.7263 94.3848 33.0417 94.4775 33.5796 94.4961L34.3959 94.5146L34.4515 89.4502L34.4886 84.4042H33.4683H32.448V86.0924ZM31.5205 88.7638C32.6521 89.3388 32.7634 91.6763 31.7245 92.6039C30.9825 93.2717 30.3888 93.2531 29.6282 92.5853C29.0531 92.0659 29.016 91.9731 29.016 90.8044C29.016 89.6357 29.0531 89.5429 29.6282 89.0235C30.2961 88.4113 30.7413 88.3556 31.5205 88.7638Z" fill="white"/>
<path d="M53.0398 89.5058V94.6074H53.7633C55.1361 94.6074 55.0804 94.7372 55.0804 91.194C55.0804 89.2832 55.1546 88.133 55.2474 88.3C55.3401 88.4484 55.8781 89.8212 56.4532 91.3424C57.0283 92.8636 57.5848 94.2178 57.7147 94.3662C57.8445 94.5332 58.197 94.6074 58.6793 94.5703C59.5327 94.5146 59.3843 94.7929 61.0168 90.285C61.4435 89.0977 61.8701 88.1145 61.9629 88.1145C62.0371 88.1145 62.0928 89.5615 62.0742 91.3053L62.0371 94.5146L63.0018 94.5703C63.8922 94.6259 63.985 94.5888 64.0777 94.1993C64.1334 93.9581 64.1519 91.6763 64.1334 89.1348L64.0777 84.497H62.5936H61.1096L59.9223 87.8733C59.2544 89.747 58.6793 91.2682 58.6051 91.2682C58.5495 91.2682 57.9187 89.747 57.1953 87.8733L55.9152 84.497L54.4868 84.4413L53.0398 84.3857V89.5058Z" fill="white"/>
<path d="M21.9481 87.1684C21.5214 87.3539 21.1133 87.6321 21.0206 87.762C20.9093 87.9475 20.8351 87.8919 20.7608 87.5579C20.6681 87.1498 20.5568 87.0942 19.7405 87.0942H18.813L18.7573 90.7487L18.7202 94.4219L19.1469 94.5146C19.4066 94.5888 19.8704 94.6074 20.2229 94.5703L20.8536 94.5146L20.9464 91.9917C21.0206 89.8397 21.0948 89.3945 21.3916 89.0606C21.7626 88.6525 22.6716 88.5411 23.1354 88.838C23.525 89.0791 23.729 90.2664 23.729 92.5296V94.6259L24.7122 94.5703L25.6769 94.5146L25.7326 91.8247C25.7882 88.4669 25.5842 87.7063 24.3969 87.1684C23.4322 86.7417 22.9128 86.7417 21.9481 87.1684Z" fill="white"/>
<path d="M43.3561 87.0942C42.3914 87.4095 41.538 88.2814 41.538 88.9678C41.538 89.376 41.6123 89.4131 42.3729 89.4131C42.985 89.4131 43.2448 89.3203 43.3746 89.0606C43.7456 88.3927 45.0813 88.1887 45.7677 88.7267C45.879 88.8194 45.9903 89.0977 45.9903 89.3388C45.9903 89.6728 45.8419 89.8026 45.3039 89.951C44.9144 90.0623 44.3578 90.1551 44.061 90.1551C41.8534 90.1551 40.5734 91.8062 41.4453 93.4943C42.0389 94.6445 44.1909 95.0526 45.4894 94.2735C46.0274 93.9581 46.1573 93.9395 46.25 94.1622C46.3243 94.3291 46.6396 94.4219 47.1962 94.4219H48.031V91.6763C48.031 88.6154 47.8454 87.929 46.8251 87.3353C46.0089 86.8715 44.4135 86.7602 43.3561 87.0942ZM45.9903 91.732C45.9903 92.6224 45.3039 93.3088 44.432 93.3088C44.0796 93.3088 43.6529 93.1789 43.5045 93.012C43.152 92.6595 43.1149 91.8989 43.4488 91.6948C43.6343 91.5835 45.341 91.1569 45.8605 91.1012C45.9347 91.0827 45.9903 91.3795 45.9903 91.732Z" fill="white"/>
<path d="M75.9506 86.9829C74.5407 87.3353 74.0027 87.9846 74.0027 89.2832C74.0027 89.9696 74.0955 90.2664 74.448 90.6189C74.8375 91.0085 76.47 91.6392 77.1008 91.6392C77.546 91.6392 78.455 92.1957 78.455 92.474C78.455 92.8636 77.6944 93.3088 77.008 93.3088C76.5442 93.3088 76.2289 93.1604 75.8578 92.7523C75.4497 92.307 75.19 92.1957 74.5778 92.1957C73.91 92.1957 73.8172 92.2514 73.8172 92.641C73.8172 93.2346 74.4851 94.0323 75.2271 94.3477C75.9506 94.663 78.0283 94.6816 78.7704 94.4033C80.1246 93.9024 80.7925 92.5482 80.2359 91.4722C79.8649 90.7673 79.2156 90.4334 77.5831 90.0438C76.8967 89.8954 76.2289 89.6728 76.099 89.5615C75.7465 89.2646 75.8022 88.7081 76.2103 88.4855C76.8782 88.133 77.546 88.2814 78.084 88.8565C78.4921 89.3017 78.7518 89.4131 79.364 89.4131C79.902 89.4131 80.1803 89.3203 80.2545 89.1162C80.44 88.6339 79.8278 87.6321 79.1414 87.3168C78.3808 86.9457 76.7297 86.7788 75.9506 86.9829Z" fill="white"/>
<path d="M87.8233 86.8901C87.7306 86.9272 87.4152 87.02 87.1369 87.0756C85.7827 87.3724 84.7809 88.9864 84.7624 90.86C84.7624 92.2885 85.0592 93.0491 85.9311 93.8097C87.5636 95.2567 90.8286 94.7001 91.7005 92.845C92.1457 91.8989 91.9973 91.6392 90.977 91.6392C90.2535 91.6392 90.1051 91.7134 89.9567 92.0844C89.6228 92.9749 88.5468 93.3645 87.6935 92.9192C86.8215 92.4554 86.5247 90.3406 87.174 89.2832C87.8048 88.2258 89.5115 88.3 89.8639 89.4131C89.9567 89.7284 90.1422 89.7841 90.9956 89.7841C92.1457 89.7841 92.2199 89.6357 91.6263 88.4855C91.3851 88.0032 90.9956 87.6136 90.4947 87.3724C89.7897 87.0014 88.2314 86.7417 87.8233 86.8901Z" fill="white"/>
<path d="M10.3351 87.0942C10.1124 87.3353 10.4093 93.012 10.6875 93.5314C11.0214 94.2178 11.8377 94.6074 12.8766 94.6074C13.8412 94.6074 15.01 94.1807 15.01 93.8282C15.0285 93.6984 15.1584 93.8282 15.3068 94.1065C15.5479 94.5703 15.6778 94.6259 16.3642 94.5703L17.1433 94.5146V90.8044V87.0942H16.123H15.1027L15.1584 89.4131C15.214 91.9731 15.0842 92.4925 14.1937 92.9007C13.5444 93.216 12.6354 92.9007 12.5055 92.307C12.4499 92.103 12.3942 90.8229 12.3571 89.5058L12.32 87.0942L11.3925 87.0385C10.873 87.0014 10.3907 87.0385 10.3351 87.0942Z" fill="white"/>
<path d="M36.1025 87.1127C35.8614 87.3539 35.9541 94.1436 36.1953 94.3848C36.3252 94.5146 36.6776 94.6074 37.0115 94.6074C38.1988 94.6074 38.1988 94.5888 38.1988 92.1957C38.1988 90.1551 38.2174 89.9881 38.6626 89.5244C38.9965 89.1533 39.2933 89.042 39.8684 89.042H40.6105V88.0217V87.0014H39.9612C39.516 87.0014 39.1264 87.1684 38.6812 87.5579L38.0319 88.133L37.9762 87.6136C37.9206 87.1313 37.8463 87.0942 37.0857 87.0385C36.622 87.0014 36.1767 87.0385 36.1025 87.1127Z" fill="white"/>
<path d="M65.9701 87.1127C65.8959 87.1869 65.8402 88.504 65.8402 90.0252C65.8402 93.1047 66.0072 93.7355 66.9347 94.292C67.6953 94.7372 69.2907 94.7001 70.0699 94.2364C70.8119 93.7911 70.7748 93.7911 70.9047 94.2364C70.9789 94.5146 71.1458 94.6074 71.6282 94.6074C72.7227 94.6074 72.7227 94.6445 72.667 90.6931L72.6114 87.0942L71.6467 87.0385C70.9418 87.0014 70.6635 87.0571 70.645 87.224C70.645 87.3539 70.6078 88.5411 70.6078 89.8397L70.5707 92.2328L70.0328 92.6966C69.6061 93.0491 69.3649 93.1233 68.9197 93.0491C68.6043 92.9749 68.2704 92.845 68.1591 92.7337C68.0663 92.641 67.9365 91.3238 67.8808 89.8212L67.7881 87.0942L66.9533 87.0385C66.4895 87.0014 66.0443 87.0385 65.9701 87.1127Z" fill="white"/>
<path d="M81.6828 87.2426C81.6457 87.3724 81.6272 89.0606 81.6457 90.9899L81.7014 94.5146L82.2393 94.5703C82.5176 94.6074 82.9628 94.5888 83.204 94.5332L83.6492 94.4219V90.8229C83.6492 86.853 83.7049 87.0014 82.4249 87.0014C82.0724 87.0014 81.7385 87.1127 81.6828 87.2426Z" fill="white"/>
<path d="M0.00203768 98.3547C0.00203768 98.4846 0.187549 99.2266 0.428715 99.9872C0.948148 101.75 1.24497 101.787 1.7644 100.173L2.17253 98.9669L2.50645 100.117C2.95167 101.712 3.30415 101.694 3.84213 100.024C4.06475 99.3194 4.25026 98.5959 4.25026 98.4289C4.25026 97.7796 3.73082 98.4846 3.50821 99.4307C3.37835 99.9501 3.22994 100.358 3.15574 100.358C3.08153 100.358 2.91457 99.9501 2.78471 99.4492C2.525 98.4475 2.15397 97.9651 1.91281 98.3362C1.8386 98.4475 1.65309 99.0226 1.46758 99.5976L1.17076 100.637L0.799738 99.4492C0.614226 98.7999 0.335959 98.2248 0.206101 98.1692C0.0947936 98.1321 -0.0165135 98.2063 0.00203768 98.3547Z" fill="white"/>
<path d="M5.53035 98.6701C4.93671 99.2823 4.84395 99.913 5.27063 100.711C5.56745 101.323 5.88282 101.471 6.75472 101.471C7.53387 101.471 8.33157 100.599 8.33157 99.7646C8.33157 99.004 7.44112 98.1321 6.66197 98.1321C6.25384 98.1321 5.90137 98.2991 5.53035 98.6701ZM7.40401 98.8742C8.12751 99.5976 7.62663 101.1 6.66197 101.1C6.12398 101.1 5.5489 100.451 5.5489 99.8388C5.5489 98.7072 6.66197 98.1321 7.40401 98.8742Z" fill="white"/>
<path d="M9.48163 98.2991C9.16626 98.5031 9.24047 101.323 9.59294 101.434C9.74135 101.471 9.81556 101.286 9.81556 100.841C9.81556 100.47 9.92686 100.117 10.0567 100.08C10.4834 99.913 11.3924 100.284 11.4481 100.655C11.5594 101.379 11.6707 101.546 11.8933 101.323C12.0231 101.193 12.0231 100.97 11.8933 100.544C11.7263 100.117 11.7449 99.8759 11.8933 99.6162C12.2272 99.0782 11.8376 98.3918 11.1141 98.2434C10.3164 98.095 9.77845 98.1136 9.48163 98.2991ZM11.4481 99.2081C11.5037 99.5791 11.4295 99.6162 10.6689 99.6162C9.88976 99.6162 9.81556 99.5791 9.81556 99.171C9.81556 98.6515 10.0567 98.5217 10.8359 98.6886C11.2254 98.7628 11.411 98.9113 11.4481 99.2081Z" fill="white"/>
<path d="M16.5497 98.262C16.1602 98.3362 16.1231 98.4475 16.1231 99.4863C16.1231 101.286 16.2158 101.471 17.0877 101.471C18.3677 101.471 19.0727 100.878 19.0912 99.7832C19.0912 98.6701 17.9225 97.9651 16.5497 98.262ZM18.4234 99.2823C18.7017 100.08 18.3677 100.766 17.6442 100.989C16.8651 101.212 16.7538 101.063 16.6981 99.6904L16.661 98.6701L17.4587 98.7257C18.1266 98.7814 18.275 98.8556 18.4234 99.2823Z" fill="white"/>
<path d="M19.6477 98.262C19.6477 98.7628 20.7608 101.379 20.9648 101.379C21.1132 101.379 21.3915 100.878 21.5956 100.21L21.9851 99.0226L22.3376 100.21C22.8385 101.824 23.1353 101.75 23.6733 99.913C23.8959 99.0968 24.0629 98.3918 24.0258 98.3547C23.8217 98.1692 23.5805 98.5588 23.3579 99.375C23.0055 100.692 22.9684 100.692 22.5973 99.5234C22.4118 98.9298 22.1892 98.3733 22.0964 98.2805C21.8553 98.0393 21.4101 98.8742 21.2245 99.8574C21.1503 100.228 21.039 100.544 20.9648 100.544C20.9092 100.544 20.6866 100.024 20.4825 99.3936C20.2784 98.7628 20.0002 98.2063 19.8889 98.1692C19.759 98.1321 19.6477 98.1692 19.6477 98.262Z" fill="white"/>
<path d="M25.1389 98.262C25.0832 98.3176 25.0276 99.0411 25.0276 99.8388C25.0276 101.008 25.0832 101.286 25.3058 101.286C25.5284 101.286 25.5841 101.008 25.5841 99.8203C25.5841 98.4475 25.4542 97.9651 25.1389 98.262Z" fill="white"/>
<path d="M26.9384 98.2434C26.7715 98.3176 26.6972 98.837 26.6972 99.913V101.471H27.6063C28.8863 101.471 29.5727 100.896 29.5727 99.8203C29.5727 98.8185 29.0532 98.2991 27.9773 98.2063C27.5321 98.1692 27.0497 98.1878 26.9384 98.2434ZM28.9048 99.2823C29.4614 100.265 28.5895 101.267 27.4393 100.97C27.1239 100.896 27.0683 100.711 27.0683 99.913C27.0683 99.375 27.1239 98.8742 27.1981 98.7999C27.2723 98.7257 27.6248 98.6886 27.9773 98.7257C28.4596 98.7628 28.7008 98.9113 28.9048 99.2823Z" fill="white"/>
<path d="M30.7043 98.2805C30.6486 98.3362 30.593 99.0782 30.593 99.9316V101.49L31.7617 101.434C33.0788 101.379 33.2458 101.045 31.9843 100.952C31.2423 100.896 31.1495 100.841 31.1495 100.432C31.1495 100.024 31.2237 99.9872 31.9843 99.9872C32.4481 99.9872 32.8191 99.8945 32.8191 99.8017C32.8191 99.6904 32.4481 99.6162 31.9843 99.6162C31.2237 99.6162 31.1495 99.5791 31.1495 99.171C31.1495 98.7443 31.2423 98.7072 32.04 98.6515C32.5223 98.6144 32.8933 98.5031 32.8748 98.4104C32.8191 98.2063 30.8898 98.095 30.7043 98.2805Z" fill="white"/>
<path d="M36.5849 98.3547C36.3252 98.7814 35.4162 100.989 35.4162 101.23C35.4162 101.638 35.713 101.508 35.9356 101.008C36.1026 100.637 36.2881 100.544 36.8632 100.544C37.4568 100.544 37.6238 100.637 37.7907 101.008C38.0876 101.638 38.4586 101.62 38.3102 100.989C38.0876 100.136 37.1229 98.1321 36.9188 98.1321C36.8261 98.1321 36.6777 98.2434 36.5849 98.3547ZM36.9745 100.136C36.3437 100.228 36.3252 100.173 36.5664 99.3379L36.789 98.633L37.1229 99.3565L37.4383 100.08L36.9745 100.136Z" fill="white"/>
<path d="M39.4418 98.262C39.3676 98.3176 39.3119 99.0411 39.3119 99.8388C39.3119 101.008 39.3676 101.286 39.5902 101.286C39.7757 101.286 39.8685 101.1 39.8685 100.766C39.8685 100.08 39.9241 100.043 40.7033 100.136C41.2783 100.21 41.3526 100.284 41.3526 100.729C41.3526 101.026 41.4824 101.286 41.6308 101.36C41.8534 101.434 41.9091 101.304 41.9091 100.822C41.9091 100.488 41.8349 100.136 41.7236 100.08C41.6123 100.006 41.6123 99.8574 41.7607 99.6347C42.0575 99.1524 41.7978 98.3918 41.3155 98.2434C40.7404 98.095 39.5902 98.095 39.4418 98.262ZM41.4268 98.9669C41.5752 99.3565 41.0372 99.8017 40.4064 99.8017C39.9241 99.8017 39.8685 99.7461 39.8685 99.2452C39.8685 98.7257 39.9056 98.6886 40.592 98.6886C41.0557 98.6886 41.3526 98.7814 41.4268 98.9669Z" fill="white"/>
<path d="M42.5955 98.2434C42.3729 98.466 42.6697 98.6886 43.2077 98.6886H43.7457L43.8014 100.024C43.8385 100.878 43.9312 101.379 44.0982 101.434C44.2651 101.49 44.3208 101.137 44.3208 100.099V98.6886H44.8959C45.2669 98.6886 45.4339 98.6144 45.3968 98.4475C45.304 98.2063 42.8367 98.0208 42.5955 98.2434Z" fill="white"/>
<path d="M48.2536 98.4289C47.4559 98.9855 47.8455 99.7275 49.0328 99.9316C49.8861 100.061 50.1829 100.395 49.7934 100.803C49.3852 101.212 48.9215 101.174 48.3835 100.711C47.9754 100.358 47.9383 100.358 47.864 100.655C47.7156 101.434 49.5337 101.805 50.1458 101.119C50.7209 100.47 50.4612 99.9316 49.4223 99.5976C48.4206 99.2823 48.1238 98.7999 48.7731 98.5959C49.0142 98.5217 49.3481 98.5959 49.6264 98.7814C50.2757 99.2081 50.6096 99.0411 50.1087 98.5402C49.6264 98.0579 48.8473 98.0208 48.2536 98.4289Z" fill="white"/>
<path d="M51.1476 98.2434C50.925 98.466 51.1847 98.6886 51.6485 98.6886C52.0752 98.6886 52.0938 98.7628 52.1494 100.024C52.1865 100.878 52.2793 101.379 52.4462 101.434C52.6132 101.49 52.6688 101.137 52.6688 100.099V98.6886H53.2439C53.5964 98.6886 53.7819 98.6144 53.7448 98.466C53.6521 98.2249 51.3517 98.0208 51.1476 98.2434Z" fill="white"/>
<path d="M56.4533 98.3733C56.2864 98.8185 56.4719 101.379 56.6574 101.379C56.7687 101.379 56.8614 101.1 56.8985 100.766C56.9542 100.228 57.0098 100.173 57.6035 100.173C57.9745 100.173 58.4197 100.08 58.6238 99.9872C59.1247 99.709 59.0876 98.7999 58.5681 98.4289C58.0487 98.0579 56.5832 98.0393 56.4533 98.3733ZM58.4939 98.9669C58.6424 99.3565 58.1044 99.8017 57.4736 99.8017C56.9913 99.8017 56.9356 99.7461 56.9356 99.2452C56.9356 98.7257 56.9727 98.6886 57.6591 98.6886C58.1229 98.6886 58.4197 98.7814 58.4939 98.9669Z" fill="white"/>
<path d="M59.9965 98.3176C59.7739 98.6701 59.978 101.286 60.2377 101.286C60.3675 101.286 60.4603 101.045 60.4603 100.729C60.4603 100.191 60.4974 100.173 61.2951 100.173C62.0928 100.173 62.1299 100.191 62.1299 100.729C62.1299 101.1 62.2227 101.286 62.4082 101.286C62.7421 101.286 62.7792 100.525 62.4638 100.21C62.2969 100.043 62.2969 99.9316 62.4638 99.7646C62.8163 99.4121 62.7235 98.7443 62.2783 98.4289C61.8145 98.095 60.182 98.0208 59.9965 98.3176ZM62.0928 99.0968C62.167 99.5049 61.4806 99.8574 60.9055 99.7275C60.5902 99.6348 60.4603 99.4863 60.4603 99.1339C60.4603 98.7072 60.516 98.6701 61.2395 98.7257C61.8145 98.7628 62.0557 98.8742 62.0928 99.0968Z" fill="white"/>
<path d="M64.4117 98.3176C63.5027 98.6886 63.2986 100.247 64.0778 101.008C65.061 102.009 66.9532 101.212 66.9532 99.8017C66.9532 98.6144 65.6175 97.8353 64.4117 98.3176ZM66.0256 98.8742C67.1016 99.9501 65.6361 101.805 64.5044 100.785C64.0036 100.34 64.0592 99.171 64.5786 98.7999C65.1352 98.4104 65.5804 98.4289 66.0256 98.8742Z" fill="white"/>
<path d="M70.7192 98.2805C70.5893 98.3547 70.2925 98.9484 70.0514 99.5977L69.6061 100.766L69.1424 99.5977C68.7899 98.7072 68.5673 98.3918 68.2705 98.3547C67.8809 98.2991 67.8623 98.3362 67.918 99.8388C67.9736 101.601 68.3076 101.861 68.4003 100.228L68.456 99.1524L68.9012 100.247C69.1424 100.841 69.3835 101.379 69.4392 101.434C69.6247 101.62 69.8844 101.23 70.3667 100.08L70.8305 98.9669L70.8491 100.21C70.8491 101.434 71.1088 101.898 71.3128 101.045C71.4798 100.395 71.3314 98.262 71.1273 98.1878C71.0346 98.1692 70.8491 98.2063 70.7192 98.2805Z" fill="white"/>
<path d="M73.1679 98.3547C72.5557 98.6886 72.3331 99.0968 72.3331 99.913C72.3331 100.544 72.4258 100.785 72.8154 101.082C73.3719 101.508 74.485 101.601 74.9488 101.23C76.5813 99.9872 74.9673 97.3715 73.1679 98.3547ZM74.7818 99.004C75.2271 99.3936 75.2085 100.265 74.7447 100.729C74.2995 101.174 73.8543 101.193 73.2977 100.803C72.8154 100.47 72.7412 99.4307 73.1864 98.9855C73.5575 98.5959 74.3552 98.6144 74.7818 99.004Z" fill="white"/>
<path d="M77.0265 98.262C76.1175 98.3547 75.932 98.6886 76.7853 98.6886H77.3419V99.9687C77.3419 101.731 77.6387 101.787 77.8057 100.08L77.9355 98.6886H78.492C78.8445 98.6886 79.0115 98.6144 78.9744 98.4475C78.8816 98.2063 78.2694 98.1507 77.0265 98.262Z" fill="white"/>
<path d="M82.0539 98.3547C81.1635 98.7814 80.9594 100.284 81.7015 101.008C82.6847 102.009 84.5769 101.212 84.5769 99.8017C84.5769 98.5959 83.1855 97.7982 82.0539 98.3547ZM83.6679 98.8927C84.4099 99.6347 83.8348 101.1 82.796 101.1C81.887 101.1 81.4603 99.5791 82.1652 98.8742C82.6476 98.3918 83.1855 98.4104 83.6679 98.8927Z" fill="white"/>
<path d="M89.697 98.4289C89.3445 98.7814 89.3074 99.3194 89.6414 99.5791C89.7527 99.6719 90.2164 99.8574 90.6431 99.9687C91.5707 100.228 91.7376 100.414 91.3295 100.803C90.9399 101.212 90.3834 101.175 90.0124 100.729C89.6043 100.265 89.1776 100.228 89.3445 100.674C89.6228 101.508 91.1069 101.787 91.7005 101.119C92.2756 100.47 92.0159 99.9316 90.977 99.5977C89.9196 99.2637 89.6414 98.7814 90.4205 98.5773C90.7359 98.5031 91.0141 98.5588 91.2368 98.7628C91.6449 99.1339 91.8118 99.1339 91.8118 98.7814C91.8118 98.1692 90.2164 97.8909 89.697 98.4289Z" fill="white"/>
<path d="M12.9692 99.4678C12.9692 101.416 13.0249 101.471 14.3049 101.471C15.1026 101.471 15.3994 101.416 15.3252 101.23C15.2881 101.1 14.9171 101.008 14.4348 101.008H13.6185L13.5629 99.6533C13.5258 98.633 13.4516 98.3176 13.2475 98.3176C13.0249 98.3176 12.9692 98.5773 12.9692 99.4678Z" fill="white"/>
<path d="M46.3615 99.913C46.3615 100.915 46.4357 101.453 46.547 101.379C46.6583 101.323 46.7325 100.599 46.7325 99.7832C46.7325 98.9298 46.6583 98.3176 46.547 98.3176C46.4357 98.3176 46.3615 98.9669 46.3615 99.913Z" fill="white"/>
<path d="M79.7907 99.8388C79.8649 101.805 80.1988 101.787 80.273 99.8017C80.3101 98.5588 80.273 98.3176 80.0318 98.3176C79.7907 98.3176 79.7536 98.5588 79.7907 99.8388Z" fill="white"/>
<path d="M85.5415 99.8388C85.6157 101.657 85.9496 101.898 86.0238 100.191L86.0794 99.004L86.9142 100.228C88.0459 101.935 88.287 101.879 88.287 99.8945C88.287 98.5959 88.2314 98.3176 88.0088 98.3176C87.7676 98.3176 87.7305 98.5031 87.8418 99.4307C87.8975 100.043 87.8789 100.544 87.8047 100.525C87.7119 100.525 87.3224 100.024 86.9328 99.4121C86.4505 98.6886 86.098 98.3176 85.8568 98.3176C85.5229 98.3176 85.4858 98.4289 85.5415 99.8388Z" fill="white"/>
<defs>
<linearGradient id="paint0_linear_1_5" x1="14.6389" y1="17.3837" x2="19.0912" y2="17.3837" gradientUnits="userSpaceOnUse">
<stop stop-color="#4668E7"/>
<stop offset="1" stop-color="#B71BEF"/>
</linearGradient>
<linearGradient id="paint1_linear_1_5" x1="34.7188" y1="20.3117" x2="37.997" y2="20.3117" gradientUnits="userSpaceOnUse">
<stop stop-color="#4668E7"/>
<stop offset="1" stop-color="#B71BEF"/>
</linearGradient>
<linearGradient id="paint2_linear_1_5" x1="72.5186" y1="21.794" x2="76.7854" y2="21.794" gradientUnits="userSpaceOnUse">
<stop stop-color="#4668E7"/>
<stop offset="1" stop-color="#B71BEF"/>
</linearGradient>
<linearGradient id="paint3_linear_1_5" x1="4.36407" y1="35.2038" x2="7.96087" y2="35.2038" gradientUnits="userSpaceOnUse">
<stop stop-color="#4668E7"/>
<stop offset="1" stop-color="#B71BEF"/>
</linearGradient>
<linearGradient id="paint4_linear_1_5" x1="84.0203" y1="37.6553" x2="89.5671" y2="37.6553" gradientUnits="userSpaceOnUse">
<stop stop-color="#4668E7"/>
<stop offset="1" stop-color="#B71BEF"/>
</linearGradient>
<linearGradient id="paint5_linear_1_5" x1="80.5507" y1="74.1478" x2="85.0214" y2="74.1478" gradientUnits="userSpaceOnUse">
<stop stop-color="#4668E7"/>
<stop offset="1" stop-color="#B71BEF"/>
</linearGradient>
</defs>
</svg>
