<svg width="180" height="164" viewBox="0 0 180 164" fill="none" xmlns="http://www.w3.org/2000/svg">
<path d="M92.0551 0.75293C91.0286 1.13312 89.6979 1.4753 89.1276 1.4753C88.2912 1.51331 88.0631 1.74144 87.873 2.72993C87.3407 5.3913 87.4168 5.31525 86.01 4.74495C84.9075 4.28873 84.6413 4.28873 83.957 4.78299C82.8544 5.54337 82.8164 7.40631 83.919 8.01462C84.3752 8.24274 85.2116 8.3568 85.7819 8.20473C86.8465 8.01463 86.8465 8.01462 86.4663 9.42134C85.972 11.2083 86.01 11.2082 84.8314 10.4098C82.8925 9.11717 80.8774 11.1702 82.1701 13.1852C82.7024 13.9836 83.0065 14.0977 84.0711 13.9456L85.3257 13.7555L84.9455 15.1242C84.7174 15.8846 84.5273 16.569 84.4512 16.645C84.3752 16.721 83.8049 16.4929 83.1586 16.1508C81.0675 15.0862 79.3567 16.9111 80.6493 18.8881C81.1816 19.6866 81.4857 19.8006 82.6263 19.6485C83.7669 19.4584 83.919 19.4965 83.6909 20.0667C83.5388 20.4089 83.2346 21.2073 83.0445 21.7776C82.7784 22.462 82.5123 22.7281 82.2081 22.5C80.7634 21.3594 78.5583 22.1198 78.5583 23.7546C78.5583 25.0853 79.6228 25.9597 80.9155 25.6936C81.4857 25.5795 81.98 25.5415 81.98 25.6176C81.98 25.6936 81.7139 26.492 81.4097 27.3665C80.5733 29.7236 80.6493 29.9898 82.6263 30.8262L84.3752 31.5866L84.1091 45.9199C83.995 53.7899 83.7669 63.865 83.6528 68.2752L83.3867 76.2973L80.8774 76.7535C72.8934 78.1983 67.5326 81.8481 64.7572 87.7411C63.6547 90.0223 63.5406 90.6306 63.5786 93.7102C63.5786 96.4475 63.8068 97.6642 64.6052 99.7932C65.1374 101.238 65.5556 102.493 65.4796 102.531C65.4036 102.607 56.9633 91.467 54.1498 87.5891C53.8077 87.1328 56.2409 84.1673 72.247 65.3858C76.9614 59.835 80.8394 55.0825 80.8394 54.8164C80.8394 54.4742 78.3301 54.3602 69.5097 54.3602H58.1799L52.6671 60.8995C35.4824 81.4299 35.4063 81.506 35.2923 80.5175C35.2162 79.9852 36.3568 76.2213 37.8015 72.1912C43.1623 57.2496 42.5159 58.5043 47.9907 52.003C59.2064 38.6582 66.1639 30.7121 66.9243 30.408C67.8368 30.0658 69.5097 28.3549 70.156 27.1003C71.6007 24.2489 69.0534 22.1578 66.0499 23.7166C65.0234 24.2489 62.9703 26.9482 62.9703 27.7466C62.9703 27.9748 61.2214 30.1419 59.0924 32.5751C56.9633 35.0083 54.3399 38.0499 53.2374 39.3806C50.9942 42.156 47.3824 46.148 47.3824 45.8819C47.3824 45.8058 47.6486 44.9694 47.9907 44.0569C48.3329 43.1445 49.8537 38.7342 51.4125 34.248C53.1994 29.0773 54.53 25.8837 54.9863 25.5795C55.3665 25.3134 55.9748 24.3249 56.355 23.3744C57.6476 19.9147 55.7467 17.2153 52.8572 18.4319C51.2604 19.0782 49.9677 21.6255 50.1198 23.8307C50.1958 25.1613 48.3329 30.6361 40.691 51.8889C39.9306 54.018 39.2083 55.0825 37.2693 57.1356L34.836 59.6829V57.0215V54.3602H25.3312H15.8264L15.7503 78.3503L15.6363 102.341L11.5682 97.5501C9.28707 94.9268 7.46214 92.6456 7.46214 92.4555C7.46214 92.3034 6.96789 91.353 6.32156 90.3645C4.38258 87.2849 1.22697 86.5245 0.23847 88.9577C-0.141723 89.9082 -0.103703 90.2884 0.618663 91.8092C1.37905 93.406 3.08992 95.0408 4.00238 95.0408C4.2305 95.0408 5.06692 95.8773 5.86533 96.8658C7.34808 98.7667 9.32509 101.124 13.4312 105.914L15.8264 108.652L15.9024 116.75L16.0165 124.886L16.967 125C17.4992 125.038 18.4877 125.19 19.1721 125.304L20.3887 125.494L19.7424 126.711C18.2976 129.562 16.3967 131.958 15.2181 132.528C12.4046 133.859 11.6823 137.204 13.2791 141.843C14.5337 145.454 16.3587 148.344 19.8945 152.07C25.0651 157.507 30.9581 161.118 36.2808 162.031C38.752 162.449 39.0182 162.411 40.7671 161.537C42.0217 160.928 42.8581 160.168 43.3904 159.217C43.8086 158.457 46.47 155.606 49.2834 152.906C53.5415 148.838 54.6821 147.964 55.9368 147.736C56.7352 147.584 57.9138 147.089 58.4841 146.709L59.5106 145.949L60.347 147.584C65.5556 157.849 79.1666 164.388 92.7014 163.095C97.796 162.601 100.876 161.727 105.4 159.484C109.088 157.621 109.278 157.583 110.799 158.001C114.905 159.217 123.307 159.598 129.124 158.913C139.199 157.659 148.78 153.971 156.574 148.382C160.68 145.416 167.219 138.877 170.147 134.733C176.496 125.798 179.69 115.913 179.69 105.306C179.69 98.4626 180.222 98.8808 171.135 98.7667L163.912 98.6527L163.798 76.4874L163.721 54.3602H155.205H146.689L144.826 57.2877C143.799 58.9225 141.176 63.1046 139.009 66.6404C133.268 75.765 134.028 75.2328 132.432 71.1267L131.063 67.6669L132.051 65.9561L133.002 64.2452L132.203 61.888C131.481 59.7969 131.481 59.4928 131.975 58.9225C132.774 58.048 132.698 57.5918 131.177 53.7519C129.96 50.7863 129.846 50.2161 130.227 49.1895C131.367 46.072 129.808 43.1445 126.349 41.8518C125.474 41.5096 125.436 41.2815 125.208 37.1754C125.018 32.5751 124.79 31.5486 123.953 31.5486C123.649 31.5486 123.421 31.3965 123.421 31.2064C123.421 31.0163 122.737 30.1419 121.862 29.2674C118.022 25.3134 111.863 25.0092 107.947 28.6211C104.868 31.4345 103.955 34.5141 104.944 38.6962C105.514 41.1675 106.312 42.4221 109.43 45.8819C110.418 46.9844 111.483 48.3151 111.863 48.8474C112.433 49.7598 112.433 49.8739 111.863 50.5202C110.989 51.5087 111.103 53.2196 112.205 54.8164C112.966 55.957 113.422 56.2231 114.563 56.3372L116.007 56.4512L118.859 62.2682C121.71 68.0851 122.547 69.1497 124.295 69.1877C124.638 69.1877 125.132 69.5679 125.322 70.0241C125.512 70.5184 126.615 73.1797 127.755 75.9551L129.884 81.0497L128.326 83.3309L126.767 85.574L120.57 76.3353C117.148 71.2407 112.509 64.2452 110.266 60.7094C107.947 57.1356 105.894 54.3602 105.552 54.3602C105.248 54.3221 102.548 54.3221 99.5829 54.3602C96.6174 54.3602 94.1462 54.2461 94.0321 54.094C93.9181 53.942 93.766 48.5812 93.728 42.194C93.6139 31.5866 93.6519 30.446 94.2982 28.9633C95.0586 27.1764 96.8455 25.4655 97.9481 25.4655C98.3283 25.4655 98.7845 25.3134 98.8986 25.0853C99.0126 24.8952 98.5184 22.2719 97.796 19.3064C97.0737 16.3028 96.3893 13.1092 96.2372 12.1587C96.0091 10.4859 96.0471 10.4478 97.4919 9.61142C98.5184 9.04114 99.2788 8.20471 99.8491 6.98808C100.609 5.42929 100.647 5.08713 100.229 3.68042C100.001 2.84399 99.2788 1.66539 98.6324 1.05708C97.2638 -0.23558 95.0206 -0.349625 92.0551 0.75293ZM97.2257 1.51332C97.6059 1.74144 98.2142 2.42578 98.5184 3.03409C99.735 5.39128 98.9746 7.36829 96.1992 8.9651C95.2868 9.49736 94.5264 10.0677 94.5264 10.2578C94.5264 11.3223 96.5414 20.637 97.4158 23.6025C97.5299 24.0208 97.2257 24.3629 96.4273 24.7051C95.2107 25.1994 93.0436 27.5946 92.6634 28.8112C92.2452 30.0658 93.1577 116.94 93.5759 117.396C93.728 117.586 96.7695 115.913 97.0356 115.533C97.1497 115.343 97.4538 115.305 97.682 115.419C97.9481 115.571 98.0241 115.571 97.8721 115.381C97.4538 114.963 98.3283 114.012 98.8606 114.317C99.0887 114.431 99.1647 114.431 99.0126 114.241C98.8606 114.089 99.2027 113.062 99.773 111.997C100.647 110.325 100.8 109.602 100.8 106.827C100.8 104.242 100.609 103.291 99.9631 102.074C99.0507 100.364 97.1877 98.3485 95.6669 97.4361L94.6404 96.8277L94.4123 90.5546C94.2602 87.0948 94.1462 82.7986 94.1462 80.9737V77.666L96.3513 78.0082C103.651 79.1107 108.898 82.4184 111.483 87.513C113.574 91.6191 113.384 95.459 110.799 101.428C109.278 104.926 109.202 105.306 109.202 108.918C109.164 112.454 109.24 112.872 110.38 115.039C111.027 116.332 112.776 119.145 114.22 121.312C118.06 127.091 119.277 130.627 119.315 136.292C119.315 137.965 119.049 140.436 118.669 141.767C117.946 144.542 116.159 148.306 115.057 149.408C114.639 149.827 114.41 150.169 114.563 150.169C114.677 150.169 114.486 150.511 114.106 150.929C113.726 151.347 113.27 151.69 113.042 151.69C112.852 151.69 113.08 151.347 113.574 150.929C114.106 150.511 114.258 150.207 113.992 150.169C113.726 150.169 113.612 149.979 113.764 149.751C113.916 149.484 113.802 149.37 113.498 149.484C113.194 149.599 113.004 149.903 113.08 150.131C113.118 150.397 113.004 150.511 112.814 150.397C112.624 150.283 112.281 150.397 112.053 150.701C111.787 151.005 111.749 151.309 111.901 151.385C112.053 151.5 112.015 151.5 111.749 151.462C111.521 151.385 111.103 151.614 110.837 151.918C110.418 152.412 110.456 152.488 110.913 152.374C111.483 152.26 111.635 152.45 111.635 153.248C111.635 153.477 111.369 153.362 111.027 153.02C110.456 152.45 110.304 152.488 109.392 153.286C108.86 153.743 109.202 153.286 110.152 152.26C111.141 151.195 112.205 149.979 112.586 149.561C113.004 149.066 113.536 148.8 113.954 148.914C114.372 149.028 114.677 148.914 114.677 148.686C114.677 148.496 114.41 148.382 114.106 148.496C113.308 148.8 113.384 148.572 114.677 145.987C117.756 139.904 117.756 133.288 114.677 126.635C113.536 124.24 110.913 120.324 110.647 120.628C110.532 120.704 110.723 121.882 111.065 123.213C111.825 126.445 111.787 134.011 111.027 137.242C110.19 140.854 107.491 146.177 104.906 149.218C103.689 150.663 102.548 151.842 102.358 151.766C102.206 151.69 101.788 151.994 101.446 152.412C100.115 153.933 95.9331 156.518 93.1577 157.507C90.3062 158.533 90.1541 158.571 91.4848 157.811C92.2072 157.393 92.5494 157.05 92.2452 157.012C91.789 157.012 91.827 156.898 92.3593 156.594C92.7014 156.366 92.9296 156.1 92.8535 155.948C92.7395 155.796 93.0056 155.644 93.4238 155.644C94.1462 155.644 94.1082 155.682 93.3097 156.328C92.4353 156.974 92.4353 157.012 93.2337 157.012C93.6899 157.012 94.1842 156.746 94.2982 156.404C94.4503 156.062 94.7925 155.872 95.1347 156.024C95.4388 156.138 95.5909 156.1 95.4768 155.91C95.3628 155.72 95.4768 155.416 95.705 155.263C96.0091 155.111 95.9711 154.921 95.6289 154.655C95.2487 154.389 95.5149 154.351 96.4273 154.503C97.2637 154.655 97.5679 154.617 97.2257 154.389C96.5414 153.933 97.2257 153.553 98.8225 153.515C99.4689 153.477 99.8111 153.4 99.5449 153.324C99.3168 153.21 99.1647 152.982 99.2788 152.83C99.3928 152.64 99.735 152.564 100.039 152.716C100.381 152.83 100.609 152.678 100.609 152.298C100.609 151.538 100.077 151.5 99.4689 152.26C99.2027 152.564 98.8225 152.716 98.5944 152.564C98.3663 152.45 98.3283 152.526 98.4804 152.754C98.6705 153.058 98.4043 153.21 97.682 153.21C97.0737 153.21 96.3893 153.4 96.1232 153.667C95.781 154.009 95.6669 154.009 95.6669 153.667C95.6669 153.4 95.4008 153.21 95.0967 153.21C94.7925 153.21 94.5264 153.02 94.5264 152.83C94.5264 152.336 95.5529 152.336 95.743 152.868C95.819 153.134 96.1612 153.134 96.8075 152.868C97.6059 152.564 97.3018 152.26 96.3513 152.412C96.1612 152.412 96.0471 150.397 96.0471 147.888C96.0471 144.238 95.9331 143.325 95.5149 143.325C94.8305 143.325 94.4883 140.36 95.1347 140.132C95.4008 140.018 95.705 138.725 95.857 137.09C96.0852 134.923 96.2753 134.201 96.7695 134.087C97.1117 133.973 96.6554 133.897 95.743 133.859C94.8305 133.859 94.1842 133.668 94.2982 133.478C94.4123 133.288 95.5149 133.212 96.7315 133.326C99.9631 133.63 100.609 133.174 100.609 130.589C100.609 127.661 100.115 127.319 96.5034 127.509L93.5759 127.699L93.3858 128.954C92.9676 131.653 92.6254 129.068 92.5113 122.795C92.4353 117.282 92.3593 116.332 91.865 116.408C91.0286 116.598 90.9145 117.852 91.751 117.89C92.1311 117.89 92.2452 118.005 91.9791 118.119C91.5989 118.233 91.4848 119.715 91.4848 123.669C91.4848 126.635 91.3327 129.296 91.1426 129.562C90.6484 130.323 90.3442 127.167 90.3442 121.616C90.3442 117.51 90.2682 116.712 89.7739 116.712C89.0896 116.712 89.0136 118.233 89.6979 118.271C90.0781 118.271 90.0781 118.347 89.6979 118.499C89.3177 118.613 89.2037 120.134 89.2037 124.126C89.2037 129.562 88.7474 131.615 88.2912 128.194C88.1771 127.205 88.1011 124.24 88.1391 121.54C88.2532 117.168 88.1771 116.712 87.6068 116.712C86.9985 116.712 86.9225 117.282 86.9225 123.365C86.9225 127.547 86.7704 130.019 86.5423 130.019C86.1241 130.019 86.1241 130.095 86.1241 121.959C86.1241 117.624 86.01 116.37 85.6298 116.218C85.3257 116.104 84.9835 116.104 84.8695 116.218C84.4512 116.636 84.6413 117.852 85.0976 117.852C85.4397 117.852 85.4397 117.966 85.0976 118.309C84.7934 118.613 84.6413 120.514 84.6413 124.392C84.6413 127.89 84.4893 130.019 84.2612 130.019C84.033 130.019 83.881 127.395 83.881 122.871L83.8429 115.761L82.3222 114.697C80.3832 113.366 78.6723 110.629 78.3301 108.386C77.7979 104.812 79.4327 100.592 81.98 99.1089C83.1206 98.4246 83.1206 98.4246 83.1206 99.337C83.1206 99.8313 82.7404 100.554 82.3222 100.972C80.1551 102.873 79.4327 107.473 80.8014 110.173C81.2196 110.933 82.056 112.073 82.6643 112.644L83.8049 113.746L84.033 110.553C84.1471 108.842 84.4132 98.2345 84.6413 87.0568C84.8695 75.8791 85.2116 59.1126 85.4017 49.7978C85.5918 40.4831 85.7439 31.7767 85.7819 30.408C85.8199 29.0393 86.01 27.7466 86.2382 27.5565C86.5043 27.2904 86.5423 29.3815 86.3902 34.5901C86.2762 38.6582 85.972 52.3451 85.7819 65.0056C85.5538 77.666 85.2116 93.9003 85.0215 101.086C84.8314 108.31 84.7554 114.317 84.8695 114.507C84.9835 114.659 85.3257 114.811 85.6298 114.811C86.0481 114.811 86.1621 114.127 86.1621 111.465C86.1621 109.64 86.3142 99.6031 86.5423 89.1478C86.8845 70.7465 87.4548 27.4045 87.3787 25.4655C87.3787 24.9332 87.2647 23.9447 87.1886 23.2604C87.0366 22.3859 87.1506 22.0437 87.5308 22.0437C88.0251 22.0437 88.0631 24.0968 87.873 36.5671C87.7589 44.5892 87.4928 65.4998 87.3027 83.0267C86.9225 115.419 86.9225 115.533 88.1771 115.571C88.4433 115.571 88.6714 73.712 88.5573 41.1675C88.4813 26.3399 88.5954 21.7016 88.9375 21.5495C89.2797 21.4354 89.3557 31.9288 89.2797 68.4653C89.1656 112.454 89.2037 115.571 89.812 115.571C90.4203 115.571 90.4203 112.416 90.2682 67.743C90.1161 38.8103 89.926 19.5725 89.6979 19.0022C89.2797 17.8996 89.5838 16.2648 90.2302 16.0747C90.4963 15.9607 90.6864 16.2268 90.6864 16.607C90.5343 22.9182 91.2567 114.697 91.4468 114.887C91.5609 115.039 91.865 115.039 92.1311 114.887C92.5874 114.621 92.3593 86.9047 91.5228 33.2214L91.1807 11.5124L89.9641 10.3338C89.3177 9.64944 88.5954 9.11717 88.4053 9.11717C88.2152 9.11717 88.0631 8.92708 88.0631 8.69896C88.0631 8.50887 88.2152 8.39482 88.3672 8.50887C88.5573 8.62292 88.6714 8.05264 88.6714 7.29225C88.6714 6.53188 88.7854 5.16316 88.9375 4.2507C89.1656 2.92003 89.3557 2.6539 90.0781 2.6539C90.5343 2.6539 91.789 2.31172 92.8155 1.89351C94.9826 1.05708 96.1612 0.981049 97.2257 1.51332ZM87.949 10.714C87.835 10.9801 87.7589 10.79 87.7589 10.2578C87.7589 9.72548 87.835 9.53539 87.949 9.7635C88.0251 10.0296 88.0251 10.4859 87.949 10.714ZM87.5688 12.9571C86.9985 13.8696 86.8084 13.6415 87.1506 12.3488C87.3027 11.6645 87.4928 11.4744 87.6829 11.8165C87.873 12.0827 87.7969 12.5769 87.5688 12.9571ZM87.4928 15.1622L88.2532 16.0747L87.4167 15.5424C86.9225 15.2383 86.5423 14.7821 86.5423 14.4779C86.5423 14.1738 86.5803 14.0217 86.6564 14.0977C86.6944 14.1737 87.0746 14.668 87.4928 15.1622ZM86.9225 17.9757C86.9225 18.0517 86.5803 18.4319 86.1621 18.8121C85.4398 19.4584 85.4017 19.4584 85.4017 18.8501C85.4017 18.5079 85.5538 18.2798 85.7439 18.4319C85.934 18.546 86.2001 18.4699 86.3522 18.2418C86.5803 17.8616 86.9225 17.7095 86.9225 17.9757ZM54.9863 19.7626C55.8987 20.675 55.9368 21.2453 55.2144 22.9562C53.8457 26.2639 50.6521 25.7316 51.6026 22.3479C51.9827 20.9032 53.2754 19.0022 53.8837 19.0022C54.0738 19.0022 54.5681 19.3444 54.9863 19.7626ZM69.3576 25.1994C69.5477 26.2259 67.6847 28.8492 66.5822 29.1153C64.1489 29.7236 63.6927 27.7086 65.8218 25.5795C67.2665 24.1348 69.1295 23.9067 69.3576 25.1994ZM52.2489 26.1498C52.7812 26.492 51.9447 29.1153 45.5955 46.7563C43.6185 52.3071 41.4134 58.5423 40.653 60.6334C39.9306 62.7244 38.4859 66.5644 37.4594 69.1877C35.7105 73.75 35.5964 73.8641 35.5964 72.1912C35.5964 70.4043 36.6229 67.2107 42.1738 51.5087C48.7131 33.1074 51.3364 25.8457 51.5265 25.8457C51.6786 25.8457 51.9828 25.9978 52.2489 26.1498ZM115.513 27.9367C115.513 28.1268 115.285 28.469 114.943 28.6591C114.296 29.0773 113.004 28.2789 113.384 27.6706C113.65 27.2144 115.437 27.4425 115.513 27.9367ZM111.787 28.6971C111.141 29.6856 110.647 29.8377 109.81 29.3435C109.278 29.0013 110.342 28.3549 112.319 27.7847C112.357 27.7466 112.129 28.1649 111.787 28.6971ZM117.718 28.1268C118.174 28.393 118.174 28.5831 117.718 29.4575C117.148 30.5601 116.311 30.5601 115.665 29.5336C115.323 28.9633 115.399 28.7351 115.969 28.2789C116.844 27.6706 116.958 27.6326 117.718 28.1268ZM113.726 29.0393C114.448 29.5716 114.448 29.6096 113.764 30.37C113.232 30.9783 112.89 31.0543 112.357 30.7502C111.521 30.332 111.445 29.6096 112.091 28.9633C112.662 28.393 112.852 28.393 113.726 29.0393ZM119.999 29.4575C120.418 29.9518 120.418 30.2179 119.999 30.9783C119.429 32.0428 118.973 32.1189 118.022 31.4345C117.604 31.0923 117.49 30.7502 117.718 30.408C117.984 29.9518 118.174 29.9518 118.555 30.332C118.783 30.5601 119.201 30.7882 119.429 30.7882C119.619 30.7882 119.505 30.5981 119.163 30.37C118.364 29.9137 118.25 28.8872 119.011 28.8872C119.277 28.8872 119.733 29.1534 119.999 29.4575ZM64.301 30.0278C64.5671 30.446 63.2745 32.0808 57.1154 39.0384C55.0623 41.3956 53.2374 43.2205 53.0473 43.1064C52.8572 42.9924 52.8192 43.1445 52.9332 43.4486C53.0473 43.7528 52.8192 44.209 52.439 44.5132C51.8307 44.9694 51.7927 44.9694 52.2109 44.4371C52.9332 43.5627 52.3249 43.2205 51.4505 43.9809C51.0323 44.3611 52.1728 42.8403 53.9978 40.5972C55.8607 38.354 57.5336 36.6051 57.7617 36.7572C57.9518 36.8713 58.0278 36.7952 57.9138 36.6051C57.6476 36.1869 63.1224 29.6476 63.7307 29.6476C63.9208 29.6476 64.187 29.8377 64.301 30.0278ZM110.076 29.9898C110.456 30.2559 110.494 30.484 110.152 31.1304C109.658 32.0428 109.316 32.1189 108.708 31.5106C108.365 31.1684 108.365 30.9023 108.708 30.37C109.202 29.5716 109.316 29.5336 110.076 29.9898ZM116.578 31.1684C116.578 31.3204 116.273 31.7007 115.893 32.0428C115.285 32.6131 115.133 32.6131 114.372 32.0808C113.612 31.5486 113.574 31.4725 114.144 30.5981C114.715 29.7236 114.791 29.7236 115.665 30.2939C116.159 30.5981 116.578 31.0163 116.578 31.1684ZM112.357 31.3205C112.7 31.7387 112.7 32.0428 112.319 32.6511C111.749 33.6016 111.673 33.6016 110.761 32.9173C110.19 32.461 110.152 32.2329 110.494 31.5866C110.989 30.6741 111.749 30.5601 112.357 31.3205ZM121.558 31.0543C121.558 31.2444 121.634 31.9288 121.71 32.6131C121.824 33.8297 121.672 34.0198 119.505 35.3885C116.882 37.0994 116.273 37.2515 117.224 35.9588C117.604 35.4646 118.174 35.1604 118.479 35.2365C118.973 35.3885 118.973 35.3885 118.479 35.0083C117.984 34.6662 118.022 34.5141 118.707 33.7917C119.391 33.1454 119.657 33.0694 120.303 33.4115C120.874 33.7157 121.178 33.7157 121.368 33.3735C121.52 33.1454 121.482 33.0313 121.292 33.1834C121.102 33.2975 120.608 33.1454 120.227 32.8412C119.505 32.347 119.505 32.309 120.189 31.5486C120.874 30.7882 121.482 30.5601 121.558 31.0543ZM108.632 32.1949C109.088 32.6511 108.479 34.2099 107.871 34.2099C107.225 34.2099 106.617 33.1454 107.073 32.8792C107.301 32.7272 107.415 32.385 107.301 32.1189C107.111 31.5486 108.023 31.5866 108.632 32.1949ZM118.25 32.0428C118.935 32.5371 118.935 32.6131 118.288 33.6016C117.642 34.5901 117.604 34.5901 116.806 33.9438C116.387 33.5636 115.969 33.2214 115.893 33.2214C115.627 33.0694 116.806 31.5486 117.148 31.5486C117.376 31.5486 117.87 31.7767 118.25 32.0428ZM114.601 34.0579C114.106 35.1224 113.992 35.1224 113.004 34.4C112.357 33.9058 112.319 33.7157 112.776 32.9173C113.232 32.0428 113.308 32.0048 114.144 32.5371C114.905 33.0313 114.943 33.2594 114.601 34.0579ZM110.837 33.6016C111.407 34.286 110.685 35.8828 110 35.5026C108.784 34.7802 108.594 34.5141 109.012 33.7917C109.468 32.9173 110.228 32.8412 110.837 33.6016ZM117.186 34.6281C117.3 34.8563 117.072 35.4266 116.616 35.8448C115.855 36.6051 115.779 36.6051 115.171 36.0349C114.639 35.5026 114.601 35.1984 114.981 34.4C115.361 33.5636 115.551 33.4876 116.159 33.8297C116.578 34.0198 117.034 34.4 117.186 34.6281ZM107.529 35.1984C107.453 35.5786 107.187 36.1489 106.959 36.4151C106.312 37.2135 105.78 35.9588 106.388 34.9703C106.959 34.0578 107.681 34.2099 107.529 35.1984ZM123.231 35.9588C122.889 36.4911 121.748 37.4796 120.646 38.1639C115.285 41.5857 107.909 42.9544 106.731 40.7492C106.426 40.179 106.578 40.1029 108.365 40.217C112.205 40.4831 119.239 38.0499 122.28 35.4265C123.725 34.1719 124.219 34.438 123.231 35.9588ZM113.118 35.1224C113.688 35.8067 112.966 37.4035 112.281 37.0234C111.065 36.301 110.875 36.0349 111.293 35.3125C111.749 34.438 112.509 34.362 113.118 35.1224ZM109.924 36.1109C110.114 36.415 109.62 37.7457 109.164 38.316C109.088 38.3921 108.594 38.1639 108.061 37.8218C107.111 37.1754 107.111 37.1374 107.719 36.1109C108.213 35.2365 108.479 35.0844 109.012 35.3885C109.392 35.5786 109.81 35.8828 109.924 36.1109ZM114.601 37.5556C113.194 38.1639 113.004 38.0119 113.574 36.7572C113.992 35.8067 114.03 35.8067 114.905 36.4151L115.779 37.0614L114.601 37.5556ZM112.167 38.4301C111.369 38.7722 109.734 38.8483 109.734 38.5822C109.734 38.5061 109.924 38.0119 110.152 37.4796L110.609 36.5291L111.749 37.3275C112.814 38.0879 112.852 38.1639 112.167 38.4301ZM124.105 40.0269C123.915 43.0304 122.965 44.3991 119.999 45.8819C118.288 46.7563 117.414 46.9464 115.171 46.9464H112.433L110.494 45.0454L108.555 43.1445L111.483 42.8783C114.829 42.5742 119.505 40.5211 122.09 38.278C122.927 37.5176 123.763 37.0614 123.953 37.2515C124.143 37.4416 124.219 38.6582 124.105 40.0269ZM108.175 38.6582C108.251 38.7342 107.985 38.7722 107.567 38.7722C107.149 38.7722 106.807 38.5061 106.807 38.202C106.807 37.7457 106.921 37.7457 107.415 38.0879C107.757 38.354 108.099 38.6202 108.175 38.6582ZM126.387 44.285C126.272 44.3991 126.044 44.209 125.93 43.8288C125.702 43.2965 125.74 43.2585 126.12 43.6007C126.387 43.8668 126.501 44.171 126.387 44.285ZM126.843 50.9384C128.135 54.5883 129.694 58.9605 130.303 60.6714C130.911 62.3822 131.405 63.9791 131.405 64.2832C131.367 64.8915 130.759 65.7279 129.694 66.5264C128.934 67.0586 128.934 67.0586 129.618 66.2602C130.265 65.4998 130.265 65.4618 129.656 65.5378C128.858 65.5759 127.337 62.6484 123.573 53.98C122.166 50.7483 120.874 47.8969 120.684 47.6307C120.418 47.3266 120.646 47.0224 121.406 46.6423C121.976 46.3381 122.889 45.6157 123.383 45.0835C123.915 44.5512 124.333 44.133 124.41 44.209C124.448 44.247 125.512 47.2886 126.843 50.9384ZM129.124 46.186C129.124 46.3761 128.934 46.3001 128.744 45.9959C128.554 45.6918 128.364 45.2355 128.364 45.0454C128.364 44.8173 128.554 44.9314 128.744 45.2355C128.934 45.5397 129.124 45.9579 129.124 46.186ZM48.523 47.6307C48.523 47.7068 48.1428 48.087 47.6866 48.5052L46.8121 49.2276L47.5345 48.3531C48.2188 47.5547 48.523 47.3266 48.523 47.6307ZM118.859 48.049C118.859 48.125 118.593 48.2771 118.288 48.4292C117.984 48.5432 117.718 48.4672 117.718 48.2771C117.718 48.049 117.984 47.8969 118.288 47.8969C118.593 47.8969 118.859 47.9729 118.859 48.049ZM119.505 51.7749C119.391 52.079 119.277 51.9649 119.277 51.5467C119.239 51.1285 119.353 50.9004 119.467 51.0525C119.581 51.1665 119.619 51.5087 119.505 51.7749ZM120.303 53.4097C120.189 53.5237 119.961 53.3336 119.847 52.9535C119.619 52.4212 119.657 52.3832 120.037 52.7253C120.303 52.9915 120.418 53.2956 120.303 53.4097ZM130.797 56.6413C130.911 57.1736 130.721 56.9075 130.303 56.071C129.922 55.2346 129.504 54.132 129.352 53.5998C129.238 53.0675 129.428 53.3336 129.846 54.1701C130.227 55.0065 130.645 56.1091 130.797 56.6413ZM121.52 56.071C121.52 56.2611 121.33 56.1851 121.14 55.8809C120.95 55.5768 120.76 55.1206 120.76 54.9305C120.76 54.7023 120.95 54.8164 121.14 55.1206C121.33 55.4247 121.52 55.8429 121.52 56.071ZM35.6344 66.1842C35.2923 67.0206 35.2543 67.0206 35.2543 66.2982C35.2162 65.88 35.3303 65.3858 35.4824 65.2717C35.9386 64.8155 36.0146 65.2717 35.6344 66.1842ZM130.569 70.2522C131.367 72.3433 131.329 72.4574 129.58 73.0276C128.782 73.2938 128.896 73.2938 130.112 73.1417C131.595 72.9516 131.671 72.9896 132.051 74.2823C132.47 75.613 132.432 75.651 131.557 75.4229C131.025 75.2708 130.379 75.3848 130.074 75.651C129.732 75.9171 129.428 76.0692 129.314 75.9932C129.162 75.8031 126.463 69.5679 126.463 69.3398C126.463 69.2637 126.767 69.1877 127.147 69.1877C127.489 69.1497 128.211 68.9216 128.744 68.6174C129.276 68.3513 129.732 68.1232 129.77 68.1612C129.808 68.1992 130.15 69.1497 130.569 70.2522ZM132.203 76.9056C131.823 77.2478 131.785 77.2098 132.013 76.6775C132.127 76.2973 132.356 76.1072 132.47 76.2213C132.584 76.3353 132.47 76.6395 132.203 76.9056ZM131.329 78.5405C131.063 79.1107 130.797 79.3389 130.721 79.1107C130.645 78.8446 130.797 78.4264 131.025 78.1222C131.709 77.2858 131.823 77.4379 131.329 78.5405ZM4.2305 89.7562C5.75127 91.0868 6.24552 92.4935 5.56117 93.33C4.83881 94.1664 3.92634 94.0143 2.82378 92.8357C1.22697 91.2009 0.922818 88.5775 2.29151 88.5775C2.63369 88.5775 3.47011 89.1098 4.2305 89.7562ZM143.685 111.427C143.077 112.226 140.758 115.419 138.439 118.575L134.257 124.316L132.165 124.012C126.729 123.289 125.664 123.783 125.398 127.129C125.246 129.068 125.322 129.296 126.387 130.399C128.592 132.566 130.797 131.729 133.534 127.661C134.561 126.141 137.45 122.073 139.959 118.613L144.522 112.34L144.636 118.385C144.674 122.073 144.902 124.658 145.13 124.962C145.396 125.228 146.271 125.456 147.107 125.456H148.666L146.803 127.395C141.404 132.908 131.367 137.242 123.915 137.242H120.76V135.722C120.76 133.212 119.657 128.498 118.441 125.875C117.832 124.544 116.007 121.464 114.372 119.031C109.734 112.112 109.24 109.222 111.673 103.063C113.802 97.6262 113.08 97.246 119.087 107.093L124.372 115.761L126.311 115.875C127.641 115.951 128.44 115.799 128.782 115.457C129.086 115.153 132.736 109.602 136.918 103.063L144.522 91.2009L144.636 100.63L144.712 110.02L143.685 111.427ZM83.0065 93.5961C82.9305 94.0904 82.8544 93.7862 82.8544 92.9498C82.8164 92.1133 82.8924 91.7332 83.0065 92.0753C83.0825 92.4555 83.0825 93.1399 83.0065 93.5961ZM11.2641 99.1089C13.4312 101.732 15.5603 104.318 15.9785 104.85L16.7008 105.8L15.7884 105.306C14.9519 104.85 14.9139 104.85 15.4082 105.42C15.6743 105.8 15.7503 106.066 15.5222 106.066C14.9139 106.066 5.94137 95.269 5.94137 94.5086C5.94137 94.3945 6.24552 94.2804 6.62571 94.2804C7.00591 94.2804 8.94489 96.3335 11.2641 99.1089ZM83.1206 95.9533C83.1206 96.4856 82.8164 96.9798 82.4742 97.1319C81.9039 97.322 81.8659 97.284 82.2841 96.9038C82.5123 96.6376 82.7404 96.1054 82.7404 95.7252C82.7404 95.345 82.8164 95.0408 82.9305 95.0408C83.0445 95.0408 83.1206 95.459 83.1206 95.9533ZM96.6174 99.8693C99.659 102.797 100.419 107.473 98.4804 111.351C97.3778 113.556 94.6024 115.951 94.1081 115.153C93.804 114.659 94.0701 113.67 94.4883 113.67C95.0586 113.67 97.1117 110.363 97.5679 108.804C98.1762 106.409 97.5299 103.557 95.857 101.58C94.6404 100.173 94.0701 98.4626 94.8305 98.4626C95.0206 98.4626 95.819 99.1089 96.6174 99.8693ZM178.321 100.82C178.435 101.314 178.549 102.607 178.549 103.709V105.762L176.572 105.534C172.314 105.002 171.706 104.85 171.325 104.165C171.021 103.595 170.185 103.443 165.508 103.215C162.505 103.063 159.844 102.835 159.615 102.683C159.349 102.531 159.045 101.884 158.931 101.2L158.703 99.9833H168.398H178.093L178.321 100.82ZM47.4204 110.058C50.8422 114.659 54.8722 120.02 56.431 121.959C58.5221 124.62 59.2064 125.76 59.0543 126.331C58.9403 126.787 58.5221 128.27 58.1419 129.6L57.4195 131.996L55.0623 128.764C50.424 122.415 44.1888 116.94 38.2958 114.089L35.0642 112.53L34.9881 110.249C34.9121 108.081 34.9881 107.853 36.4329 105.952C38.676 103.063 40.653 101.086 40.9571 101.428C41.0712 101.58 43.9987 105.458 47.4204 110.058ZM176.952 106.675C178.739 106.903 178.815 107.131 178.321 110.781C178.017 112.796 178.093 112.796 173.911 111.883C171.097 111.275 170.945 111.199 170.945 110.211C170.945 109.07 170.717 109.032 162.961 107.929C161.174 107.701 159.463 107.359 159.159 107.169C157.867 106.485 160.034 106.409 164.558 106.979C170.717 107.777 171.173 107.777 171.439 106.827C171.63 106.028 171.553 106.028 176.952 106.675ZM16.3967 107.207C16.7769 107.625 17.005 107.967 16.8909 107.967C16.7769 107.967 16.3967 107.625 16.0165 107.207C15.6363 106.789 15.4082 106.447 15.5222 106.447C15.6363 106.447 16.0165 106.789 16.3967 107.207ZM164.976 112.188C169.272 113.214 170.299 113.366 170.565 112.948C170.831 112.492 171.439 112.53 174.139 113.1C175.964 113.48 177.523 113.898 177.599 114.05C177.827 114.393 176.686 119.107 176.306 119.487C176.04 119.753 160.072 114.583 158.323 113.632C157.79 113.366 157.676 112.986 157.867 112.226C158.247 110.743 158.399 110.591 159.083 110.781C159.463 110.895 162.087 111.541 164.976 112.188ZM34.1137 113.936C35.3303 114.165 35.3303 114.203 34.4939 114.431C33.5434 114.659 32.8971 115.571 33.6574 115.571C34.1897 115.571 37.6115 117.776 40.0447 119.715C44.607 123.327 50.8802 130.893 50.1958 131.958C50.0438 132.224 50.0818 132.3 50.3099 132.186C51.1463 131.653 51.6406 133.973 51.5645 138.307C51.5645 140.094 51.6786 140.664 51.9827 140.436C52.2489 140.284 52.3249 140.322 52.1728 140.588C52.0588 140.778 52.1728 141.082 52.401 141.196C52.6671 141.31 52.401 141.31 51.7546 141.196C50.8802 141.044 50.7281 141.082 51.1843 141.386C51.6786 141.767 51.6786 141.805 51.1843 141.805C50.6901 141.805 50.6901 141.843 51.1843 142.185C52.1728 142.793 51.2224 142.603 49.1693 141.729C45.8236 140.322 42.0217 137.622 38.1437 133.859C33.8095 129.676 30.6539 125.228 29.3232 121.464C27.8785 117.358 28.0686 115.229 30.0076 114.279C31.3763 113.632 32.2507 113.556 34.1137 113.936ZM36.699 114.773C37.0412 115.001 36.9271 115.077 36.2047 115.077C35.6725 115.077 35.3303 114.963 35.4444 114.773C35.7105 114.355 36.0146 114.355 36.699 114.773ZM167.942 118.195C171.82 119.525 175.241 120.742 175.507 120.894C175.926 121.16 175.812 121.692 174.975 123.707C174.367 125.076 173.797 126.217 173.645 126.217C173.53 126.217 172.124 125.532 170.565 124.772C168.246 123.593 167.714 123.137 167.714 122.415C167.714 121.654 166.953 121.236 162.201 119.107C159.159 117.738 156.612 116.56 156.536 116.484C156.46 116.408 156.574 115.913 156.802 115.381L157.258 114.431L159.045 115.153C160.072 115.533 164.064 116.902 167.942 118.195ZM34.9881 115.419C35.1782 115.951 35.1402 115.989 34.6459 115.571C33.9996 115.039 33.9236 114.811 34.4178 114.811C34.6079 114.811 34.8741 115.077 34.9881 115.419ZM38.4479 115.571C38.5619 115.799 38.4099 115.837 38.1057 115.723C37.4214 115.457 37.3073 115.191 37.8396 115.191C38.0677 115.191 38.3338 115.343 38.4479 115.571ZM45.1393 120.02C45.6335 120.628 45.5955 120.666 45.0252 120.172C44.3789 119.677 44.1888 119.373 44.4929 119.373C44.569 119.373 44.8731 119.677 45.1393 120.02ZM162.999 123.783C165.28 125.152 166.231 125.38 166.497 124.582C166.611 124.278 167.599 124.582 169.767 125.646C171.515 126.483 172.998 127.281 173.074 127.395C173.226 127.661 172.048 129.905 170.869 131.501L170.223 132.414L168.512 131.311C167.561 130.703 164.938 129.03 162.695 127.585C160.452 126.141 157.41 124.202 156.004 123.289L153.418 121.616L154.217 120.514L155.053 119.373L157.943 120.932C159.577 121.806 161.821 123.099 162.999 123.783ZM26.1676 125.152L27.3082 127.699L25.5593 130.475C24.5708 131.996 23.8865 133.44 24.0005 133.706C24.1906 134.239 18.6778 142.185 18.1456 142.185C17.8034 142.185 16.8529 139.79 16.2066 137.318L15.7884 135.645L18.5258 131.235C23.2782 123.555 24.7229 121.502 24.875 122.073C24.951 122.377 25.5593 123.745 26.1676 125.152ZM49.0933 123.555C49.4735 123.974 49.7016 124.316 49.5875 124.316C49.4735 124.316 49.0933 123.974 48.7131 123.555C48.3329 123.137 48.1048 122.795 48.2188 122.795C48.3329 122.795 48.7131 123.137 49.0933 123.555ZM157.22 125.304C164.064 129.562 169.424 133.212 169.424 133.668C169.424 133.859 168.588 134.961 167.599 136.102L165.775 138.117L163.227 135.76C161.174 133.821 160.756 133.25 161.06 132.718C161.326 132.186 161.136 131.767 160.186 130.893C158.855 129.638 153.266 125.228 152.278 124.582C151.745 124.278 151.707 124.05 152.05 123.479C152.316 123.099 152.658 122.795 152.848 122.795C153.038 122.795 154.977 123.936 157.22 125.304ZM131.899 125.304L133.306 125.57L132.47 126.939C130.455 130.323 128.326 131.349 127.071 129.562C126.349 128.536 126.272 126.179 126.919 125.532C127.413 125.038 129.618 124.962 131.899 125.304ZM155.395 131.806C157.562 133.897 158.627 134.619 159.121 134.467C159.653 134.353 160.642 134.999 162.505 136.672L165.166 139.067L163.265 140.892L161.402 142.755L154.559 135.722C150.833 131.844 147.753 128.612 147.753 128.536C147.753 128.422 148.134 127.966 148.552 127.471L149.388 126.635L150.871 127.775C151.669 128.422 153.722 130.247 155.395 131.806ZM30.2737 128.916C30.844 129.981 30.4638 129.79 29.7034 128.65C29.3613 128.08 29.2472 127.775 29.4753 127.89C29.7034 128.042 30.0836 128.498 30.2737 128.916ZM151.403 134.087C153.913 136.558 156.954 139.752 158.209 141.196L160.49 143.782L159.159 144.922C156.726 146.975 156.194 147.279 155.547 146.747C154.293 145.683 151.023 140.892 151.479 140.74C151.707 140.664 151.936 140.436 151.936 140.246C151.936 140.056 150.301 137.889 148.324 135.417L144.712 130.969L145.586 130.323C146.043 129.943 146.537 129.638 146.651 129.638C146.765 129.638 148.932 131.653 151.403 134.087ZM36.699 138.459C38.638 140.322 40.3488 141.805 40.577 141.805C41.2233 141.805 40.9191 142.641 39.7025 144.238C39.0182 145.074 38.2578 146.025 37.9916 146.291C37.7255 146.595 37.5734 146.975 37.7255 147.165C37.9156 147.507 33.0491 154.199 31.9466 155.149C30.9201 155.986 22.5558 149.142 20.0465 145.34L18.906 143.63L21.9475 139.485C23.9625 136.786 25.2552 135.341 25.7114 135.341C26.1676 135.341 27.0041 134.505 27.9926 133.06L29.5514 130.779L31.3763 132.946C32.3648 134.163 34.76 136.634 36.699 138.459ZM145.472 137.47C147.753 140.474 149.122 141.995 149.616 141.995C150.111 141.995 151.213 143.097 152.658 144.998L154.977 148.04L153.913 148.724C152.81 149.484 150.187 150.929 149.882 150.929C149.806 150.929 148.894 149.446 147.905 147.622C146.575 145.15 146.233 144.2 146.499 143.744C146.803 143.249 146.233 142.071 143.913 138.421C141.594 134.733 141.024 133.554 141.366 133.174C141.594 132.908 141.86 132.718 141.936 132.794C142.012 132.87 143.609 134.961 145.472 137.47ZM141.176 140.968C143.115 144.732 143.495 145.226 144.218 145.036C144.902 144.884 145.282 145.302 146.765 148.04C147.715 149.789 148.514 151.385 148.514 151.614C148.514 151.956 144.294 153.971 143.533 153.971C143.343 153.971 143.191 153.819 143.191 153.629C143.191 153.439 141.67 149.751 139.769 145.454C135.663 136.026 135.663 135.988 136.804 135.455C137.944 134.923 138.287 135.379 141.176 140.968ZM136.234 140.17C137.108 142.223 138.819 146.215 140.074 149.028C141.328 151.842 142.279 154.275 142.203 154.427C142.089 154.579 140.872 155.073 139.503 155.492C137.716 156.062 136.88 156.138 136.728 155.834C136.576 155.606 136.081 154.047 135.587 152.336C134.827 149.561 134.827 149.218 135.359 148.8C135.701 148.572 135.967 148.23 135.967 148.04C135.967 147.85 135.283 145.34 134.409 142.413C133.116 138.117 132.926 137.09 133.344 136.824C134.371 136.178 134.675 136.52 136.234 140.17ZM130.835 143.668C131.899 147.964 132.394 149.37 132.888 149.523C133.344 149.637 133.838 150.663 134.447 152.678C134.903 154.313 135.397 155.872 135.473 156.138C135.663 156.594 132.584 157.393 130.683 157.393C129.618 157.393 129.618 157.354 129.2 154.047C128.858 151.157 128.858 150.663 129.39 150.283C129.96 149.827 129.96 149.408 129.39 145.34C129.01 142.869 128.63 140.208 128.516 139.409C128.326 138.307 128.402 138.003 128.858 138.003C129.276 138.003 129.77 139.485 130.835 143.668ZM121.52 148.306V158.229L118.783 157.963C117.262 157.811 115.969 157.659 115.931 157.621C115.703 157.431 116.768 150.625 117.11 150.207C117.832 149.294 119.619 144.314 120.265 141.31C120.646 139.714 121.064 138.383 121.216 138.383C121.406 138.383 121.52 142.831 121.52 148.306ZM125.094 140.17C125.208 140.968 125.512 143.63 125.74 146.063C126.12 149.903 126.311 150.549 126.843 150.549C127.641 150.549 127.869 151.347 128.211 154.997L128.478 157.659L127.223 157.887C126.539 158.039 125.246 158.153 124.333 158.153H122.661V149.066C122.661 144.048 122.775 139.714 122.889 139.371C123.003 139.029 123.535 138.763 123.991 138.763C124.714 138.763 124.904 139.029 125.094 140.17ZM44.1508 140.74C45.2153 141.234 45.2914 141.462 44.683 142.071C44.0747 142.679 42.4019 141.576 42.706 140.816C42.9342 140.17 42.9342 140.17 44.1508 140.74ZM52.7812 142.375C52.7812 142.565 52.5911 142.755 52.3629 142.793C52.0588 142.869 52.0968 142.831 52.3629 142.679C52.6671 142.527 52.6291 142.375 52.2869 142.109C51.8687 141.805 51.8687 141.767 52.2489 141.881C52.553 141.957 52.7812 142.185 52.7812 142.375ZM54.1118 143.173C53.9978 143.287 53.6556 143.325 53.3895 143.211C53.0853 143.097 53.1994 142.983 53.6176 142.983C54.0358 142.945 54.2639 143.059 54.1118 143.173ZM50.2339 146.899L52.8952 147.698L47.4965 152.906L42.0977 158.153H40.0447C37.8776 158.153 34.6459 157.354 33.6194 156.556C33.0491 156.1 33.2772 155.682 35.8626 152.45C37.6875 150.131 38.9421 148.876 39.3603 148.914C39.7405 148.952 41.0332 148.002 42.2498 146.747L44.4549 144.504L46.0137 145.34C46.8882 145.759 48.7891 146.481 50.2339 146.899ZM115.285 153.857C114.829 157.545 114.867 157.507 112.852 157.202C111.863 157.05 110.951 156.86 110.799 156.784C110.571 156.632 114.981 151.766 115.399 151.728C115.475 151.69 115.399 152.678 115.285 153.857ZM109.962 154.997C108.86 155.948 108.213 156.1 108.213 155.454C108.213 155.263 108.365 155.149 108.517 155.263C108.898 155.492 109.924 154.883 109.962 154.351C110.076 153.591 110.114 153.553 110.571 153.819C110.875 154.009 110.647 154.389 109.962 154.997ZM107.605 154.845C106.997 155.606 106.16 156.1 103.081 157.431C101.712 158.039 99.0126 158.913 98.5564 158.913C98.3283 158.913 99.5449 158.343 101.294 157.621C103.005 156.936 105.248 155.834 106.236 155.187C107.225 154.541 108.061 154.009 108.137 154.009C108.213 153.971 107.947 154.351 107.605 154.845ZM106.084 157.354C106.198 157.545 106.084 157.773 105.818 157.887C105.514 158.001 105.286 157.849 105.286 157.545C105.286 156.936 105.78 156.822 106.084 157.354ZM104.601 158.153C104.487 158.343 103.993 158.723 103.537 158.951C102.739 159.332 102.739 159.293 103.613 158.571C104.563 157.697 104.982 157.545 104.601 158.153ZM89.3938 158.913C88.3672 159.37 87.7589 159.37 88.4433 158.913C88.7474 158.723 89.2797 158.571 89.5839 158.571C89.964 158.571 89.888 158.685 89.3938 158.913ZM102.396 159.103C102.396 159.408 102.244 159.56 102.054 159.446C101.864 159.332 101.826 159.065 101.94 158.875C102.282 158.381 102.396 158.457 102.396 159.103ZM98.8225 159.484C99.8491 159.902 100.191 159.94 100.343 159.56C100.457 159.217 100.647 159.217 100.952 159.522C101.522 160.054 97.6439 161.194 94.5644 161.385C92.5494 161.537 92.7775 161.423 95.5909 160.966C96.2753 160.852 96.7315 160.624 96.6174 160.434C96.5034 160.282 97.0356 160.168 97.834 160.244C99.1267 160.32 99.1647 160.282 98.4804 159.788C98.1002 159.484 97.4158 159.37 96.9976 159.484C96.5794 159.598 95.5529 159.788 94.7165 159.902C93.9181 160.016 93.1196 160.168 93.0056 160.244C92.8915 160.32 92.5494 160.244 92.2452 160.016C91.827 159.788 92.0931 159.674 93.1957 159.636C94.0321 159.598 95.2487 159.446 95.857 159.293C96.5034 159.141 97.1117 158.989 97.2257 158.951C97.3778 158.951 98.1002 159.179 98.8225 159.484ZM90.2682 160.32C89.888 160.396 89.2797 160.396 88.9375 160.32C88.5573 160.206 88.8615 160.13 89.5839 160.13C90.3062 160.13 90.6104 160.206 90.2682 160.32ZM91.2187 161.841C90.5343 161.917 89.3938 161.917 88.7474 161.841C88.0631 161.765 88.5954 161.689 89.9641 161.689C91.3327 161.689 91.865 161.765 91.2187 161.841Z" fill="white"/>
</svg>
